<svg width="100" height="100" viewBox="0 0 100 100" fill="none" xmlns="http://www.w3.org/2000/svg">
<g clip-path="url(#clip0_1471_3058)">
<path d="M85.3614 82.5876C84.5985 81.8249 83.3559 81.8309 82.593 82.5936C81.8303 83.3563 81.8303 84.593 82.593 85.3559C82.9745 85.7372 83.4743 85.928 83.9741 85.928C84.4739 85.928 84.9737 85.7372 85.3551 85.3559L85.3674 85.3436C86.1301 84.5809 86.1241 83.3503 85.3614 82.5876Z" fill="black"/>
<path d="M99.9006 46.8396C99.1359 34.6934 93.9703 23.2596 85.3553 14.6445C75.9115 5.20098 63.3555 0 50 0C37.2697 0 25.266 4.725 15.9914 13.3461L13.868 11.4018C13.2967 10.8785 12.4709 10.7424 11.7621 11.0547C11.0533 11.3668 10.5959 12.068 10.5959 12.8422V27.4416C10.5959 28.5201 11.4705 29.3947 12.549 29.3947H27.1484C27.9277 29.3947 28.6326 28.9314 28.9416 28.2158C29.2506 27.5004 29.1045 26.6695 28.5701 26.1023L25.1318 22.4527C39.6811 9.30371 62.2215 9.73808 76.2416 23.7586C90.7113 38.2281 90.7113 61.7721 76.2416 76.2416C69.2322 83.2508 59.9127 87.1111 50 87.1111C40.0873 87.1111 30.7678 83.2508 23.7586 76.2416C16.749 69.232 12.8887 59.9129 12.8887 50C12.8887 48.9215 12.0141 48.0469 10.9355 48.0469H1.95312C0.874609 48.0469 0 48.9215 0 50C0 63.3555 5.20098 75.9115 14.6445 85.3555C23.2018 93.9127 34.5566 99.073 46.6172 99.8861C47.7457 99.9623 48.8717 99.9998 49.9965 99.9998C60.775 99.9998 71.2912 96.5287 79.9244 90.0643C80.7879 89.4176 80.9635 88.1936 80.3172 87.3301C79.6703 86.4668 78.4465 86.291 77.583 86.9373C59.3822 100.566 33.5117 98.6984 17.4066 82.5932C9.1623 74.349 4.42559 63.5324 3.94648 51.9531H9.02773C9.50371 62.1762 13.7109 71.7186 20.9963 79.0037C36.9891 94.9965 63.0109 94.9965 79.0037 79.0037C94.9963 63.0109 94.9963 36.9891 79.0037 20.9963C63.0109 5.00351 36.9891 5.00351 20.9963 20.9963C20.2496 21.743 20.2316 22.948 20.9559 23.7168L22.625 25.4885H14.5021V17.2789L14.7068 17.4662C15.4775 18.1721 16.6674 18.1461 17.4068 17.4068C26.1127 8.70078 37.6879 3.90625 50 3.90625C62.3121 3.90625 73.8873 8.70078 82.5932 17.4068C98.851 33.6646 100.607 59.6826 86.6775 77.9269C86.0229 78.7844 86.1873 80.01 87.0447 80.6646C87.9018 81.3195 89.1277 81.1549 89.7824 80.2975C97.0652 70.7588 100.659 58.8766 99.9006 46.8396Z" fill="black"/>
<path d="M35.428 56.4453H29.5171C29.7745 56.2094 30.0351 55.9652 30.2958 55.7143C33.9913 52.1562 35.7878 49.1408 35.7878 46.4951C35.7878 42.3998 33.0362 39.6484 28.9409 39.6484C25.1657 39.6484 22.0942 42.7199 22.0942 46.4951C22.0942 47.5736 22.9688 48.4482 24.0474 48.4482C25.1259 48.4482 26.0005 47.5736 26.0005 46.4951C26.0005 44.8738 27.3196 43.5547 28.9409 43.5547C31.8815 43.5547 31.8815 45.7678 31.8815 46.4951C31.8815 49.2139 26.6396 54.1611 22.9177 56.8055C22.2241 57.2975 21.9286 58.1814 22.1866 58.9914C22.4448 59.8014 23.1974 60.3516 24.0476 60.3516H35.428C36.5065 60.3516 37.3812 59.477 37.3812 58.3984C37.3812 57.3199 36.5065 56.4453 35.428 56.4453Z" fill="black"/>
<path d="M49.7464 50.2933H48.4132V49.74C48.4132 48.6615 47.5386 47.7869 46.4601 47.7869C45.3816 47.7869 44.507 48.6615 44.507 49.74V50.2933H41.8121L46.2066 42.5676C46.7398 41.6299 46.4123 40.4375 45.4746 39.9041C44.5376 39.3711 43.3445 39.6984 42.8111 40.6361L36.7564 51.2806C36.4124 51.8853 36.4162 52.6271 36.7658 53.2283C37.1156 53.8297 37.7585 54.1996 38.4542 54.1996H44.507V58.3988C44.507 59.4773 45.3816 60.3519 46.4601 60.3519C47.5386 60.3519 48.4132 59.4773 48.4132 58.3988V54.1996H49.7464C50.8249 54.1996 51.6996 53.325 51.6996 52.2465C51.6996 51.1679 50.8249 50.2933 49.7464 50.2933Z" fill="black"/>
<path d="M62.0219 39.7792C61.0147 39.392 59.885 39.8938 59.4977 40.9006L53.0356 57.6975C52.6483 58.7042 53.1504 59.8342 54.157 60.2217C54.3879 60.3104 54.6248 60.3526 54.858 60.3526C55.6426 60.3526 56.3828 59.8764 56.6813 59.1002L63.1434 42.3034C63.5307 41.2967 63.0285 40.1667 62.0219 39.7792Z" fill="black"/>
<path d="M77.5561 40.4871C77.191 39.9617 76.5918 39.6484 75.9521 39.6484H67.749C66.6705 39.6484 65.7959 40.523 65.7959 41.6016C65.7959 42.6801 66.6705 43.5547 67.749 43.5547H73.1414L67.8717 57.7174C67.4955 58.7281 68.0102 59.8527 69.0211 60.2289C69.2455 60.3125 69.4756 60.3521 69.702 60.3521C70.4945 60.3521 71.24 59.866 71.5326 59.0795L77.7826 42.2826C78.0059 41.6832 77.9211 41.0123 77.5561 40.4871Z" fill="black"/>
</g>
<defs>
<clipPath id="clip0_1471_3058">
<rect width="100" height="100" fill="white"/>
</clipPath>
</defs>
</svg>
