<svg width="19" height="18" viewBox="0 0 19 18" fill="none" xmlns="http://www.w3.org/2000/svg">
<g clip-path="url(#clip0_1116_603)">
<path d="M4.04148 17.6355C3.84427 17.6355 3.64844 17.574 3.4813 17.4532C3.16997 17.2275 3.02453 16.8397 3.10927 16.4655L4.26726 11.3645L0.340089 7.9205C0.0514157 7.66849 -0.0588624 7.2694 0.0596557 6.90423C0.178174 6.53975 0.500631 6.2817 0.882416 6.24641L6.07854 5.77467L8.1329 0.967071C8.28438 0.613852 8.62936 0.385742 9.01265 0.385742C9.39595 0.385742 9.74093 0.613852 9.89241 0.966247L11.9468 5.77467L17.1421 6.24641C17.5247 6.28088 17.8471 6.53975 17.9656 6.90423C18.0842 7.26871 17.9746 7.66849 17.6859 7.9205L13.7587 11.3638L14.9167 16.4646C15.0016 16.8397 14.856 17.2275 14.5448 17.4525C14.2343 17.6774 13.8203 17.6947 13.4933 17.4982L9.01265 14.8206L4.53203 17.4997C4.38056 17.5897 4.21177 17.6355 4.04148 17.6355ZM9.01265 13.6672C9.18295 13.6672 9.35159 13.7129 9.50321 13.8029L13.7318 16.332L12.6389 11.5175C12.5609 11.1749 12.6772 10.8171 12.942 10.5853L16.6501 7.33326L11.7442 6.88775C11.391 6.85548 11.0872 6.63341 10.9492 6.30794L9.01265 1.77102L7.07379 6.30862C6.93728 6.6319 6.6335 6.85397 6.2811 6.88624L1.37448 7.33175L5.08246 10.5838C5.34807 10.8163 5.46425 11.1734 5.38556 11.5168L4.29349 16.3312L8.5221 13.8029C8.67358 13.7129 8.84236 13.6672 9.01265 13.6672ZM6.03885 5.86765C6.03885 5.86765 6.03885 5.86847 6.03802 5.86916L6.03885 5.86765ZM11.9849 5.86545L11.9858 5.86696C11.9858 5.86614 11.9858 5.86614 11.9849 5.86545Z" fill="#FFD600"/>
</g>
<defs>
<clipPath id="clip0_1116_603">
<rect width="18" height="18" fill="white" transform="translate(0.0126953)"/>
</clipPath>
</defs>
</svg>
