<svg width="100" height="100" viewBox="0 0 100 100" fill="none" xmlns="http://www.w3.org/2000/svg">
<path d="M46.8757 52.8081V70.8333C46.8757 72.5583 48.2757 73.9583 50.0006 73.9583C51.7256 73.9583 53.1256 72.5583 53.1256 70.8333V52.8081C63.7006 51.2748 71.8756 42.2417 71.8756 31.25C71.8756 19.1875 62.0632 9.375 50.0006 9.375C37.9382 9.375 28.1257 19.1875 28.1257 31.25C28.1257 42.2417 36.3006 51.2748 46.8757 52.8081ZM50.0006 15.625C58.6173 15.625 65.6256 22.6333 65.6256 31.25C65.6256 39.8667 58.6173 46.875 50.0006 46.875C41.384 46.875 34.3757 39.8667 34.3757 31.25C34.3757 22.6333 41.384 15.625 50.0006 15.625ZM82.2923 75C82.2923 83.9083 68.409 90.625 50.0006 90.625C31.5923 90.625 17.709 83.9083 17.709 75C17.709 68.4417 24.8757 63.0752 36.8799 60.6461C38.584 60.3127 40.2214 61.3958 40.5631 63.0875C40.9089 64.7791 39.8131 66.4293 38.1214 66.7709C28.8256 68.6543 23.959 72.3375 23.959 75C23.959 78.8208 34.1048 84.375 50.0006 84.375C65.8965 84.375 76.0423 78.8208 76.0423 75C76.0423 72.3375 71.1799 68.6543 61.8799 66.7709C60.1882 66.4293 59.0965 64.7791 59.4382 63.0875C59.7799 61.3958 61.4339 60.3127 63.1214 60.6461C75.1256 63.0752 82.2923 68.4417 82.2923 75Z" fill="#82D1DA"/>
</svg>
