<svg width="100" height="100" viewBox="0 0 100 100" fill="none" xmlns="http://www.w3.org/2000/svg">
<g clip-path="url(#clip0_1471_3020)">
<path d="M63.3333 63.5013V48.333C63.3333 45.5763 61.09 43.333 58.3333 43.333H11.6667C8.91 43.333 6.66667 45.5763 6.66667 48.333V63.5013C2.86833 64.2763 0 67.643 0 71.6663V81.6663V98.333C0 99.253 0.746667 99.9997 1.66667 99.9997H8.33333C9.25333 99.9997 10 99.253 10 98.333V93.333H60V98.333C60 99.253 60.7467 99.9997 61.6667 99.9997H68.3333C69.2533 99.9997 70 99.253 70 98.333V81.6663V71.6663C70 67.643 67.1317 64.2763 63.3333 63.5013ZM10 48.333C10 47.4147 10.7483 46.6663 11.6667 46.6663H58.3333C59.2517 46.6663 60 47.4147 60 48.333V63.333H56.6667V56.6663C56.6667 53.9097 54.4233 51.6663 51.6667 51.6663H41.6667C38.91 51.6663 36.6667 53.9097 36.6667 56.6663V63.333H33.3333V56.6663C33.3333 53.9097 31.09 51.6663 28.3333 51.6663H18.3333C15.5767 51.6663 13.3333 53.9097 13.3333 56.6663V63.333H10V48.333ZM53.3333 56.6663V63.333H40V56.6663C40 55.748 40.7483 54.9997 41.6667 54.9997H51.6667C52.585 54.9997 53.3333 55.748 53.3333 56.6663ZM30 56.6663V63.333H16.6667V56.6663C16.6667 55.748 17.415 54.9997 18.3333 54.9997H28.3333C29.2517 54.9997 30 55.748 30 56.6663ZM66.6667 96.6663H63.3333V91.6663C63.3333 90.7463 62.5867 89.9997 61.6667 89.9997H8.33333C7.41333 89.9997 6.66667 90.7463 6.66667 91.6663V96.6663H3.33333V83.333H66.6667V96.6663ZM66.6667 79.9997H3.33333V71.6663C3.33333 68.9097 5.57667 66.6663 8.33333 66.6663H15H31.6667H38.3333H55H61.6667C64.4233 66.6663 66.6667 68.9097 66.6667 71.6663V79.9997Z" fill="black"/>
<path d="M98.3335 63.333H75.0002C74.0802 63.333 73.3335 64.0797 73.3335 64.9997V78.333V89.9997H76.6668V79.9997H96.6668V89.9997H100V78.333V64.9997C100 64.0797 99.2535 63.333 98.3335 63.333ZM96.6668 76.6663H76.6668V66.6663H96.6668V76.6663Z" fill="black"/>
<path d="M90.0002 70H83.3335V73.3333H90.0002V70Z" fill="black"/>
<path d="M94.9152 49.4713L91.5819 39.4713C91.3536 38.7913 90.7186 38.333 90.0002 38.333H83.3336C82.6152 38.333 81.9802 38.7913 81.7519 39.473L78.4186 49.473C78.2486 49.9813 78.3352 50.5397 78.6486 50.9747C78.9619 51.4097 79.4652 51.6663 80.0002 51.6663H85.0002V56.6663H81.6669V59.9997H91.6669V56.6663H88.3336V51.6663H93.3336C93.8686 51.6663 94.3719 51.4097 94.6852 50.973C94.9986 50.538 95.0836 49.9797 94.9152 49.4713ZM82.3119 48.333L84.5352 41.6663H88.8002L91.0219 48.333H82.3119Z" fill="black"/>
<path d="M99.015 21.8117L50.6817 0.145C50.2467 -0.0483333 49.7517 -0.0483333 49.3183 0.145L0.985 21.8117C0.385 22.0817 0 22.6767 0 23.3333V43.3333H3.33333V24.4117L50 3.49333L96.6667 24.4133V43.3333H100V23.3333C100 22.6767 99.615 22.0817 99.015 21.8117Z" fill="black"/>
<path d="M61.5052 23.0563L58.2168 23.6097C58.2952 24.0647 58.3335 24.5313 58.3335 24.9997C58.3335 29.5947 54.5952 33.333 50.0002 33.333C45.4052 33.333 41.6668 29.5947 41.6668 24.9997C41.6668 20.4047 45.4052 16.6663 50.0002 16.6663C50.9535 16.6663 51.8902 16.8263 52.7802 17.1413L53.8902 13.998C52.6418 13.5563 51.3335 13.333 50.0002 13.333C43.5668 13.333 38.3335 18.5663 38.3335 24.9997C38.3335 31.433 43.5668 36.6663 50.0002 36.6663C56.4335 36.6663 61.6668 31.433 61.6668 24.9997C61.6668 24.3463 61.6118 23.693 61.5052 23.0563Z" fill="black"/>
<path d="M60.4883 13.8213L49.9999 24.3096L47.845 22.1546L45.4883 24.5113L48.8216 27.8446C49.1466 28.1696 49.5733 28.333 49.9999 28.333C50.4266 28.333 50.8533 28.1696 51.1783 27.8446L62.8449 16.178L60.4883 13.8213Z" fill="black"/>
</g>
<defs>
<clipPath id="clip0_1471_3020">
<rect width="100" height="100" fill="white"/>
</clipPath>
</defs>
</svg>
