<svg width="20" height="16" viewBox="0 0 20 16" fill="none" xmlns="http://www.w3.org/2000/svg">
<path d="M15.0127 0.25H5.0127C2.3937 0.25 0.262695 2.381 0.262695 5V11C0.262695 13.619 2.3937 15.75 5.0127 15.75H15.0127C17.6317 15.75 19.7627 13.619 19.7627 11V5C19.7627 2.381 17.6317 0.25 15.0127 0.25ZM5.0127 1.75H15.0127C16.3667 1.75 17.5277 2.58394 18.0157 3.76294L11.8157 7.89697C10.7207 8.62597 9.30469 8.62597 8.21069 7.89697L2.01068 3.76294C2.49768 2.58294 3.6587 1.75 5.0127 1.75ZM15.0127 14.25H5.0127C3.2207 14.25 1.7627 12.792 1.7627 11V5.401L7.37769 9.14502C8.17769 9.67802 9.0947 9.94495 10.0127 9.94495C10.9297 9.94495 11.8467 9.67802 12.6477 9.14502L18.2627 5.401V11C18.2627 12.792 16.8047 14.25 15.0127 14.25Z" fill="#82D1DA"/>
</svg>
