<svg width="100" height="100" viewBox="0 0 100 100" fill="none" xmlns="http://www.w3.org/2000/svg">
<path d="M57.8125 55.4072C56.7344 55.4072 55.8594 56.362 55.8594 57.5384C55.8594 58.7147 56.7344 59.6695 57.8125 59.6695C58.8906 59.6695 59.7656 58.7147 59.7656 57.5384C59.7656 56.362 58.8906 55.4072 57.8125 55.4072Z" fill="black"/>
<path d="M75.2383 66.8825C73.4074 64.8858 68.9674 59.4817 65.4647 50.7176C62.86 43.8984 56.8031 39.4932 50.0295 39.4932C43.2572 39.4932 37.2014 43.8991 34.5961 50.7198C30.2016 61.7177 24.198 67.5378 24.1404 67.5928C24.1334 67.5994 24.1266 67.6062 24.1197 67.6128C20.5787 71.0723 18.5479 76.028 18.5479 81.2093C18.5479 87.5432 21.3121 93.0515 26.1074 96.5417C30.5754 99.7942 36.1131 100.769 41.2996 99.2178C43.8988 98.4408 46.9072 98.0299 50.0002 98.0299C53.1453 98.0299 56.1983 98.4544 58.8289 99.2574C63.8631 100.795 69.3887 99.9519 73.9502 96.6634C78.8006 93.1664 81.6127 87.6061 81.6127 81.2093C81.6127 75.5833 79.2912 70.3695 75.2383 66.8825ZM71.7963 93.1072C68.2762 95.6449 63.9334 96.3904 59.8813 95.1528C56.9123 94.2465 53.4955 93.7676 49.9996 93.7676C46.5629 93.7676 43.1975 94.2309 40.2664 95.1072C36.1715 96.3324 31.8008 95.5629 28.2746 92.9961C24.593 90.3162 22.4535 86.1266 22.4535 81.209C22.4535 77.2421 24.0074 73.4472 26.717 70.7957C27.1338 70.3969 33.4721 64.2052 38.183 52.4061C38.1873 52.395 38.1918 52.384 38.1959 52.3729C40.1897 47.138 44.8342 43.7554 50.0287 43.7554C55.2252 43.7552 59.8707 47.1371 61.8639 52.3708C61.868 52.3818 61.8725 52.3929 61.8768 52.404C65.7022 61.9834 70.6276 67.8973 72.5674 69.9957C72.6233 70.0557 72.6822 70.1124 72.744 70.1649C75.8975 72.8384 77.7059 76.8639 77.7059 81.209C77.7063 86.1675 75.532 90.414 71.7963 93.1072Z" fill="black"/>
<path d="M63.1331 63.8923C62.5445 62.9063 61.3347 62.6269 60.4306 63.2694C59.5265 63.9122 59.271 65.2324 59.8597 66.2185C62.8318 71.1974 65.6497 74.5135 67.0654 76.047C67.8306 76.8761 69.0673 76.8716 69.8277 76.0362C70.5876 75.201 70.5831 73.8515 69.8177 73.0221C68.5122 71.6079 65.9079 68.5414 63.1331 63.8923Z" fill="black"/>
<path d="M43.6702 29.1032C45.5469 25.524 46.3293 20.7701 45.8168 16.0617C44.8254 6.89509 39.0315 -0.784022 32.5582 0.0641695C29.6352 0.441593 27.0364 2.53522 25.2393 5.95931C23.3637 9.53578 22.5813 14.2897 23.0926 19.0014C24.7119 33.9716 37.484 40.8941 43.6702 29.1032ZM28.6295 8.07659C29.6987 6.03859 31.3664 4.26634 33.5162 4.26634C37.3602 4.26634 41.2168 9.89658 41.9379 16.5628C42.3539 20.3845 41.7496 24.1837 40.2801 26.9861C35.7787 35.5669 28.0354 28.3326 26.9717 18.501C26.5567 14.6763 27.1612 10.8767 28.6295 8.07659Z" fill="black"/>
<path d="M24.9615 52.024C25.5269 48.2257 24.8398 44.025 23.0269 40.1956C21.2132 36.3653 18.4707 33.3227 15.3041 31.628C11.941 29.8281 8.49683 29.7351 5.6062 31.3661C2.71558 32.9958 0.793312 36.1143 0.192921 40.1479C-0.372509 43.9464 0.314601 48.1469 2.12749 51.9767C3.94136 55.8059 6.68394 58.8479 9.85054 60.5426C12.9931 62.2245 16.4748 62.5388 19.5478 60.8064C22.4388 59.1768 24.3615 56.0576 24.9615 52.024ZM17.755 57.0196C15.9914 58.0144 13.7953 57.9064 11.5709 56.7159C9.15093 55.4208 7.02984 53.0425 5.598 50.0199C4.16694 46.9969 3.61655 43.7339 4.04859 40.8311C4.44566 38.1634 5.63589 36.1471 7.39976 35.1527C7.39995 35.1525 7.40015 35.1525 7.40034 35.1523C9.35074 34.052 11.6097 34.3981 13.5839 35.4547C16.0037 36.7498 18.1248 39.1283 19.5566 42.152C20.9877 45.175 21.538 48.4384 21.106 51.341C20.7091 54.0088 19.5189 56.0252 17.755 57.0196Z" fill="black"/>
<path d="M64.6479 35.1012C70.5688 35.1012 75.9737 28.0476 76.9524 19.0425C77.9925 9.4494 73.5628 0.0449219 66.5266 0.0449219C60.6048 0.0449219 55.2005 7.09876 54.2241 16.1037C53.1829 25.7142 57.6257 35.1012 64.6479 35.1012ZM58.1034 16.6043C58.8264 9.9385 62.6839 4.30698 66.527 4.30698C66.7079 4.30698 66.8637 4.31657 67.0034 4.33639C69.086 4.58892 70.6981 6.57493 71.6477 8.6027C72.9395 11.3606 73.4591 14.9831 73.0735 18.541C72.3229 25.4468 68.128 31.3698 64.1718 30.8095C64.1645 30.8087 64.1573 30.8076 64.1501 30.8066C62.3741 30.5785 60.6895 29.0249 59.5286 26.5443C58.2372 23.7862 57.7178 20.1632 58.1034 16.6043Z" fill="black"/>
<path d="M99.8073 40.1568C98.5722 31.8569 91.696 27.8891 84.6962 31.6369C78.1476 35.1422 73.8687 44.1718 75.0388 52.0332C76.2886 60.4313 83.2333 64.2539 90.1497 60.5517C96.7003 57.0458 100.977 48.0173 99.8073 40.1568ZM88.4294 56.7248C86.2052 57.9151 84.0091 58.0227 82.2452 57.0285V57.0287C80.4814 56.0341 79.2911 54.0172 78.8942 51.3499C78.0013 45.3495 81.4017 38.1482 86.4165 35.4632C91.0122 33.0032 95.13 35.3193 95.9517 40.8398C96.8431 46.8291 93.4534 54.0362 88.4294 56.7248Z" fill="black"/>
</svg>
