<svg width="100" height="100" viewBox="0 0 100 100" fill="none" xmlns="http://www.w3.org/2000/svg">
<path d="M98.3321 79.1662H96.4805C101.084 74.686 101.184 67.3219 96.7042 62.7183C95.9934 61.9878 95.1896 61.3541 94.3138 60.8331C97.8346 58.7306 99.9929 54.934 99.9988 50.8332C99.9904 44.3935 94.7719 39.175 88.3322 39.1667H73.3324V27.5002C73.332 26.5798 72.5856 25.8337 71.6652 25.8341C71.5806 25.8341 71.496 25.8406 71.4124 25.8535L51.666 28.8901V27.3335C55.5433 26.5362 58.3276 23.1254 58.3326 19.1669C58.3326 11.8937 51.471 4.94711 51.1777 4.65544C50.5269 4.00483 49.4719 4.00483 48.8211 4.65544C48.5277 4.94711 41.6661 11.8937 41.6661 19.1669C41.6711 23.1254 44.4555 26.5362 48.3327 27.3335V29.4051L28.0796 32.5218C27.2674 32.6468 26.6674 33.3449 26.6663 34.1667V52.7348C25.4491 51.4219 24.0451 50.2953 22.4997 49.3915C21.9841 49.0938 21.3487 49.0938 20.8331 49.3915C15.9115 52.2513 12.589 57.2264 11.8332 62.868C10.6813 62.6318 9.50905 62.5085 8.33323 62.4997C7.59761 62.5031 6.86304 62.5508 6.13326 62.643C5.54201 62.7143 5.0339 63.0955 4.79994 63.643C1.40373 71.6096 4.05057 80.866 11.1449 85.8328H0V89.1661H3.96995L6.84158 94.911C7.12387 95.476 7.70157 95.8328 8.33323 95.8326H71.6658C72.5862 95.8326 73.3324 95.0864 73.3324 94.166V89.1661H83.969L86.8406 94.911C87.1229 95.476 87.7006 95.8328 88.3322 95.8326H94.9988C95.9192 95.8326 96.6655 95.0864 96.6655 94.166V89.1661H98.3321C99.2525 89.1661 99.9988 88.4198 99.9988 87.4994V80.8328C99.9988 79.9124 99.2525 79.1662 98.3321 79.1662ZM96.6655 70.8329C96.66 75.4329 92.9322 79.1608 88.3322 79.1662H58.3326C53.7304 79.1662 49.9994 75.4352 49.9994 70.8329C49.9994 66.2307 53.7304 62.4997 58.3326 62.4997H79.999C82.7604 62.4997 84.9989 64.7382 84.9989 67.4997C84.9989 70.2611 82.7604 72.4996 79.999 72.4996H63.3325C62.4121 72.4996 61.6659 71.7534 61.6659 70.8329C61.6659 69.9125 62.4121 69.1663 63.3325 69.1663H74.9991V65.833H63.3325C60.5711 65.833 58.3326 68.0715 58.3326 70.8329C58.3326 73.5944 60.5711 75.8329 63.3325 75.8329H79.999C84.5989 75.8275 88.3268 72.0996 88.3322 67.4997C88.3262 65.6905 87.7252 63.9337 86.6223 62.4997H88.3322C92.9322 62.5051 96.66 66.233 96.6655 70.8329ZM83.3323 42.5C86.0937 42.5 88.3322 44.7385 88.3322 47.4999C88.3322 50.2613 86.0937 52.4998 83.3323 52.4998H66.6658C65.7454 52.4998 64.9992 51.7536 64.9992 50.8332C64.9992 49.9128 65.7454 49.1665 66.6658 49.1665H78.3324V45.8333H66.6658C63.9044 45.8333 61.6659 48.0718 61.6659 50.8332C61.6659 53.5946 63.9044 55.8331 66.6658 55.8331H83.3323C87.9322 55.8277 91.6601 52.0998 91.6655 47.4999C91.6639 45.7808 91.1255 44.1052 90.1255 42.7066C94.6138 43.725 97.4269 48.1889 96.4086 52.6771C95.5517 56.4544 92.2053 59.1431 88.3322 59.1664H79.999H64.9992C60.397 59.1664 56.666 55.4354 56.666 50.8332C56.666 46.231 60.397 42.5 64.9992 42.5H83.3323ZM44.9994 19.1669C44.9994 14.9053 48.2077 10.4737 49.9994 8.33373C51.7927 10.472 54.9993 14.8953 54.9993 19.1669C54.9906 21.2782 53.6566 23.1565 51.666 23.8602V20.8336H48.3327V23.8602C46.3421 23.1565 45.0082 21.2782 44.9994 19.1669ZM21.6664 52.7965C25.3899 55.3025 27.8009 59.3398 28.2413 63.8064C25.7555 64.7991 23.5168 66.323 21.6814 68.2713C19.8327 66.3305 17.5833 64.8159 15.0898 63.833C15.5225 59.3562 17.935 55.3077 21.6664 52.7965ZM30.0267 66.6809C31.6246 66.1197 33.3058 65.833 34.9996 65.833C35.2612 65.833 35.5346 65.843 35.8196 65.8613C38.5654 73.6773 34.4552 82.2391 26.6393 84.9849C25.0414 85.5461 23.3599 85.8328 21.6664 85.8328C21.4047 85.8328 21.1314 85.8228 20.8464 85.8044C18.1006 77.9885 22.2108 69.4267 30.0267 66.6809ZM6.66658 70.8329C6.6645 69.1396 6.95075 67.4584 7.51324 65.8613C7.79824 65.843 8.07157 65.833 8.33323 65.833C12.649 65.8201 16.7567 67.6859 19.5864 70.9446C16.8533 75.1454 15.99 80.2934 17.2031 85.1561C10.9347 83.2024 6.66533 77.3989 6.66658 70.8329ZM33.9696 92.4993H9.36322L7.69657 89.1661H35.6362L33.9696 92.4993ZM49.9994 92.4993H37.6962L39.3628 89.1661H43.3328V85.8328H32.1746C39.2768 80.8728 41.9303 71.6136 38.5329 63.6447C38.2989 63.0972 37.7908 62.716 37.1995 62.6447C35.3031 62.401 33.3794 62.4685 31.5046 62.8447C31.2446 60.991 30.7011 59.1883 29.893 57.4998H29.9996V35.5967L69.9991 29.4435V39.1667H64.9992C58.5643 39.1581 53.3408 44.3679 53.3323 50.8028C53.3281 53.9973 54.6356 57.0535 56.9493 59.2564C50.5604 60.0102 45.9925 65.8005 46.7463 72.1894C47.059 74.8402 48.2727 77.3033 50.1844 79.1662H48.3327C47.4123 79.1662 46.6661 79.9124 46.6661 80.8328V87.4994C46.6661 88.4198 47.4123 89.1661 48.3327 89.1661H49.9994V92.4993ZM57.3026 92.4993H53.3327V89.1661H58.9693L57.3026 92.4993ZM69.9991 92.4993H61.0292L62.6959 89.1661H69.9991V92.4993ZM93.3322 92.4993H89.3622L87.6956 89.1661H93.3322V92.4993ZM96.6655 85.8328H49.9994V82.4995H96.6655V85.8328Z" fill="black"/>
<path d="M36.6663 39.167H33.333V52.5002H36.6663V39.167Z" fill="black"/>
<path d="M36.6663 55.833H33.333V59.1663H36.6663V55.833Z" fill="black"/>
</svg>
