<svg width="86" height="86" viewBox="0 0 86 86" fill="none" xmlns="http://www.w3.org/2000/svg">
<g clip-path="url(#clip0_1444_413)">
<path d="M65.3091 28.4278C64.6557 27.7694 63.5923 27.765 62.9337 28.4183C62.2752 29.0717 62.2709 30.1352 62.9243 30.7938L62.9343 30.8043C63.2614 31.134 63.69 31.2982 64.1192 31.2982C64.5472 31.2982 64.9758 31.1346 65.3047 30.8084C65.9633 30.1551 65.9625 29.0864 65.3091 28.4278Z" fill="black"/>
<path d="M85.5081 48.6269L69.9075 33.0263C69.2516 32.3706 68.188 32.3706 67.5319 33.0263C66.876 33.6823 66.876 34.7458 67.5319 35.4019L79.9166 47.7864H50.3835C47.9335 47.7864 45.9405 45.7933 45.9405 43.3435V13.8105L57.897 25.7669C58.553 26.4226 59.6165 26.4226 60.2726 25.7669C60.9285 25.111 60.9285 24.0474 60.2726 23.3913L45.1 8.21886C44.4441 7.56311 43.3805 7.56311 42.7246 8.21886L15.947 34.9969C15.2911 35.6529 15.2911 36.7164 15.947 37.3725L56.3551 77.7804C56.67 78.0954 57.0973 78.2724 57.5428 78.2724C57.9882 78.2724 58.4156 78.0954 58.7305 77.7804L85.5082 51.0025C85.8232 50.6874 86.0002 50.2603 86.0002 49.8148C86.0001 49.3694 85.823 48.942 85.5081 48.6269ZM42.5815 13.1133V34.5051H21.1897L42.5815 13.1133ZM55.8631 72.5375L21.1897 37.8643H42.5815V43.3435C42.5815 47.6457 46.0816 51.1458 50.3838 51.1458H55.8631V72.5375ZM59.2223 72.5376V51.1458H80.614L59.2223 72.5376Z" fill="black"/>
<path d="M11.5279 42.6641H1.67969C0.751996 42.6641 0 43.4162 0 44.3438C0 45.2713 0.751996 46.0234 1.67969 46.0234H11.5279C12.4556 46.0234 13.2076 45.2714 13.2076 44.3438C13.2076 43.4162 12.4556 42.6641 11.5279 42.6641Z" fill="black"/>
<path d="M16.5359 42.6641H16.5107C15.5831 42.6641 14.8311 43.4162 14.8311 44.3438C14.8311 45.2713 15.5831 46.0234 16.5107 46.0234H16.5359C17.4636 46.0234 18.2156 45.2713 18.2156 44.3438C18.2156 43.4162 17.4636 42.6641 16.5359 42.6641Z" fill="black"/>
<path d="M7.05714 25.0278H1.68164C0.753949 25.0278 0.00195312 25.78 0.00195312 26.7075C0.00195312 27.635 0.753949 28.3872 1.68164 28.3872H7.05714C7.98484 28.3872 8.73683 27.635 8.73683 26.7075C8.73683 25.78 7.98484 25.0278 7.05714 25.0278Z" fill="black"/>
<path d="M18.8984 25.0278H12.5444C11.6167 25.0278 10.8647 25.78 10.8647 26.7075C10.8647 27.635 11.6167 28.3872 12.5444 28.3872H18.8984C19.826 28.3872 20.578 27.635 20.578 26.7075C20.578 25.78 19.826 25.0278 18.8984 25.0278Z" fill="black"/>
<path d="M22.555 51.9019H13.1489C12.2212 51.9019 11.4692 52.654 11.4692 53.5815C11.4692 54.5091 12.2212 55.2612 13.1489 55.2612H22.555C23.4827 55.2612 24.2347 54.5091 24.2347 53.5815C24.2347 52.654 23.4825 51.9019 22.555 51.9019Z" fill="black"/>
<path d="M29.8997 62.6519H6.21631C5.28862 62.6519 4.53662 63.404 4.53662 64.3315C4.53662 65.2591 5.28862 66.0112 6.21631 66.0112H29.8997C30.8274 66.0112 31.5794 65.2591 31.5794 64.3315C31.5794 63.404 30.8274 62.6519 29.8997 62.6519Z" fill="black"/>
</g>
<defs>
<clipPath id="clip0_1444_413">
<rect width="86" height="86" fill="white"/>
</clipPath>
</defs>
</svg>
