<svg width="143" height="21" viewBox="0 0 143 21" fill="none" xmlns="http://www.w3.org/2000/svg">
<path d="M128.903 17.8466L129.219 5.08283C129.247 3.96073 130.509 3.3025 131.428 3.93122L140.891 10.4107C141.716 10.9758 141.685 12.2101 140.832 12.7581L131.053 19.0424C130.104 19.6522 128.875 18.9687 128.903 17.8466Z" fill="#FECBB2"/>
<path d="M128.903 17.8465L129.219 5.08278C129.232 4.58197 129.491 4.17473 129.855 3.93164L129.57 15.4123C129.543 16.5344 130.772 17.2179 131.721 16.6081L141.094 10.5846C141.701 11.199 141.607 12.2607 140.832 12.7581L131.053 19.0423C130.104 19.6521 128.875 18.9686 128.903 17.8465Z" fill="#FECBB2"/>
<path d="M131 11.6489L2 11.6489" stroke="#FECBB2" stroke-width="3" stroke-linecap="round"/>
</svg>
