<svg width="16" height="20" viewBox="0 0 16 20" fill="none" xmlns="http://www.w3.org/2000/svg">
<path d="M7.2627 10.674V15C7.2627 15.414 7.5987 15.75 8.0127 15.75C8.42669 15.75 8.7627 15.414 8.7627 15V10.674C11.3007 10.306 13.2627 8.138 13.2627 5.5C13.2627 2.605 10.9077 0.25 8.0127 0.25C5.1177 0.25 2.7627 2.605 2.7627 5.5C2.7627 8.138 4.7247 10.306 7.2627 10.674ZM8.0127 1.75C10.0807 1.75 11.7627 3.432 11.7627 5.5C11.7627 7.568 10.0807 9.25 8.0127 9.25C5.9447 9.25 4.2627 7.568 4.2627 5.5C4.2627 3.432 5.9447 1.75 8.0127 1.75ZM15.7627 16C15.7627 18.138 12.4307 19.75 8.0127 19.75C3.5947 19.75 0.262695 18.138 0.262695 16C0.262695 14.426 1.98271 13.1381 4.86371 12.5551C5.27271 12.4751 5.66568 12.735 5.74768 13.141C5.83068 13.547 5.56768 13.943 5.16168 14.025C2.93068 14.477 1.7627 15.361 1.7627 16C1.7627 16.917 4.1977 18.25 8.0127 18.25C11.8277 18.25 14.2627 16.917 14.2627 16C14.2627 15.361 13.0957 14.477 10.8637 14.025C10.4577 13.943 10.1957 13.547 10.2777 13.141C10.3597 12.735 10.7567 12.4751 11.1617 12.5551C14.0427 13.1381 15.7627 14.426 15.7627 16Z" fill="#82D1DA"/>
</svg>
