<svg width="19" height="18" viewBox="0 0 19 18" fill="none" xmlns="http://www.w3.org/2000/svg">
<g clip-path="url(#clip0_1116_618)">
<path d="M17.9658 6.90423C17.8479 6.53975 17.5247 6.28088 17.1422 6.24641L11.9469 5.77467L9.89254 0.966247C9.74106 0.613852 9.39608 0.385742 9.01279 0.385742C8.62949 0.385742 8.28451 0.613852 8.13303 0.967071L6.07868 5.77467L0.882558 6.24641C0.500773 6.28171 0.178316 6.53975 0.0597981 6.90423C-0.0587199 7.26872 0.0507342 7.66849 0.339545 7.9205L4.26657 11.3645L3.10858 16.4655C3.02385 16.8405 3.16942 17.2282 3.48062 17.4532C3.64789 17.574 3.84359 17.6355 4.04093 17.6355C4.21109 17.6355 4.37987 17.5897 4.53135 17.499L9.01279 14.8206L13.4926 17.499C13.8204 17.6962 14.2336 17.6783 14.5441 17.4532C14.8555 17.2275 15.0009 16.8397 14.9162 16.4655L13.7582 11.3645L17.6852 7.92118C17.974 7.66849 18.0843 7.2694 17.9658 6.90423Z" fill="#FFD600"/>
</g>
<defs>
<clipPath id="clip0_1116_618">
<rect width="18" height="18" fill="white" transform="translate(0.0126953)"/>
</clipPath>
</defs>
</svg>
