<svg width="100" height="100" viewBox="0 0 100 100" fill="none" xmlns="http://www.w3.org/2000/svg">
<path d="M13.971 21.8073C15.3454 21.8064 16.6887 21.3809 17.8311 20.5846C18.9734 19.7883 19.8636 18.657 20.3892 17.3336C20.9147 16.0102 21.052 14.5542 20.7836 13.1495C20.5153 11.7449 19.8534 10.4546 18.8816 9.44189C17.9097 8.42915 16.6716 7.73937 15.3237 7.45973C13.9758 7.18009 12.5785 7.32313 11.3086 7.87079C10.0387 8.41845 8.95306 9.34614 8.18894 10.5366C7.42483 11.7271 7.01652 13.1269 7.01562 14.5591C7.01754 16.4808 7.75095 18.3233 9.05493 19.6822C10.3589 21.041 12.1269 21.8053 13.971 21.8073ZM13.971 10.6043C14.7207 10.6053 15.4533 10.8378 16.0762 11.2725C16.6991 11.7072 17.1843 12.3246 17.4706 13.0466C17.7569 13.7687 17.8313 14.5629 17.6845 15.329C17.5377 16.0951 17.1763 16.7987 16.6459 17.3508C16.1154 17.9029 15.4399 18.2787 14.7045 18.4308C13.9692 18.5828 13.2071 18.5043 12.5146 18.2051C11.8221 17.906 11.2302 17.3996 10.8138 16.7499C10.3974 16.1003 10.1751 15.3366 10.1751 14.5553C10.1773 13.5073 10.578 12.503 11.2896 11.7624C12.0011 11.0218 12.9654 10.6053 13.971 10.6043Z" fill="black"/>
<path d="M13.9714 5.08832C14.3903 5.08807 14.7919 4.91455 15.0881 4.60587C15.3843 4.29719 15.5509 3.87861 15.5511 3.44207V1.64625C15.5511 1.20964 15.3847 0.790907 15.0884 0.482176C14.7921 0.173444 14.3903 0 13.9714 0C13.5524 0 13.1506 0.173444 12.8543 0.482176C12.558 0.790907 12.3916 1.20964 12.3916 1.64625V3.44207C12.3916 3.87869 12.558 4.29742 12.8543 4.60615C13.1506 4.91488 13.5524 5.08832 13.9714 5.08832Z" fill="black"/>
<path d="M21.5154 8.3443C21.7228 8.34473 21.9283 8.30239 22.1199 8.21973C22.3116 8.13707 22.4856 8.01571 22.6321 7.86266L23.8507 6.59269C23.9974 6.43982 24.1138 6.25833 24.1932 6.05858C24.2726 5.85884 24.3135 5.64476 24.3135 5.42856C24.3135 5.21236 24.2726 4.99828 24.1932 4.79853C24.1138 4.59879 23.9974 4.4173 23.8507 4.26443C23.704 4.11155 23.5299 3.99028 23.3382 3.90755C23.1465 3.82481 22.9411 3.78223 22.7336 3.78223C22.5262 3.78223 22.3207 3.82481 22.129 3.90755C21.9374 3.99028 21.7632 4.11155 21.6165 4.26443L20.3979 5.53439C20.177 5.76468 20.0267 6.05802 19.9658 6.37734C19.905 6.69666 19.9363 7.02762 20.0559 7.32837C20.1755 7.62912 20.378 7.88616 20.6378 8.06699C20.8976 8.24782 21.203 8.34433 21.5154 8.3443Z" fill="black"/>
<path d="M23.0601 14.5593C23.0601 14.9959 23.2265 15.4147 23.5228 15.7234C23.819 16.0321 24.2208 16.2056 24.6398 16.2056H26.3631C26.7821 16.2056 27.1839 16.0321 27.4801 15.7234C27.7764 15.4147 27.9428 14.9959 27.9428 14.5593C27.9428 14.1227 27.7764 13.704 27.4801 13.3953C27.1839 13.0865 26.7821 12.9131 26.3631 12.9131H24.6398C24.2209 12.9133 23.8192 13.0869 23.523 13.3955C23.2268 13.7042 23.0603 14.1228 23.0601 14.5593Z" fill="black"/>
<path d="M20.3974 21.2562C20.1014 21.565 19.9351 21.9837 19.9351 22.4203C19.9351 22.8569 20.1014 23.2756 20.3974 23.5844L21.6161 24.8544C21.7618 25.0117 21.9361 25.1371 22.1288 25.2234C22.3215 25.3098 22.5288 25.3552 22.7386 25.3572C22.9483 25.3591 23.1564 25.3175 23.3505 25.2348C23.5447 25.152 23.7211 25.0298 23.8694 24.8753C24.0178 24.7207 24.1351 24.537 24.2146 24.3347C24.2941 24.1324 24.3341 23.9156 24.3323 23.697C24.3305 23.4784 24.287 23.2624 24.2042 23.0615C24.1215 22.8607 24.0012 22.679 23.8503 22.5271L22.6317 21.2571C22.485 21.1042 22.3109 20.9828 22.1193 20.9C21.9276 20.8172 21.7222 20.7745 21.5147 20.7744C21.3073 20.7743 21.1018 20.8168 20.9101 20.8995C20.7184 20.9822 20.5442 21.1034 20.3974 21.2562Z" fill="black"/>
<path d="M12.3916 25.6775V27.4733C12.3916 27.9099 12.558 28.3287 12.8543 28.6374C13.1506 28.9461 13.5524 29.1196 13.9714 29.1196C14.3903 29.1196 14.7921 28.9461 15.0884 28.6374C15.3847 28.3287 15.5511 27.9099 15.5511 27.4733V25.6775C15.5511 25.2409 15.3847 24.8222 15.0884 24.5134C14.7921 24.2047 14.3903 24.0312 13.9714 24.0312C13.5524 24.0312 13.1506 24.2047 12.8543 24.5134C12.558 24.8222 12.3916 25.2409 12.3916 25.6775Z" fill="black"/>
<path d="M5.31351 21.2567L4.09484 22.5267C3.94399 22.6786 3.82368 22.8603 3.74092 23.0611C3.65817 23.262 3.61463 23.478 3.61285 23.6966C3.61107 23.9152 3.65108 24.132 3.73055 24.3343C3.81002 24.5366 3.92736 24.7204 4.07572 24.8749C4.22407 25.0294 4.40048 25.1516 4.59464 25.2344C4.7888 25.3171 4.99683 25.3587 5.20659 25.3568C5.41635 25.3548 5.62363 25.3094 5.81635 25.2231C6.00907 25.1367 6.18336 25.0113 6.32906 24.854L7.54772 23.5841C7.69858 23.4322 7.81889 23.2505 7.90164 23.0496C7.9844 22.8487 8.02794 22.6327 8.02972 22.4141C8.0315 22.1955 7.99148 21.9788 7.91201 21.7765C7.83254 21.5742 7.71521 21.3904 7.56685 21.2358C7.41849 21.0813 7.24209 20.9591 7.04792 20.8764C6.85376 20.7936 6.64573 20.752 6.43598 20.754C6.22622 20.7559 6.01893 20.8014 5.82621 20.8877C5.6335 20.974 5.4592 21.0995 5.31351 21.2567Z" fill="black"/>
<path d="M4.88278 14.5593C4.88254 14.1228 4.71603 13.7042 4.41982 13.3955C4.12361 13.0869 3.72193 12.9133 3.30303 12.9131H1.57975C1.16077 12.9131 0.758959 13.0865 0.462698 13.3953C0.166437 13.704 0 14.1227 0 14.5593C0 14.9959 0.166437 15.4147 0.462698 15.7234C0.758959 16.0321 1.16077 16.2056 1.57975 16.2056H3.30303C3.72201 16.2056 4.12382 16.0321 4.42008 15.7234C4.71635 15.4147 4.88278 14.9959 4.88278 14.5593Z" fill="black"/>
<path d="M5.31322 7.86363C5.6095 8.17238 6.01133 8.34583 6.43033 8.34583C6.84933 8.34583 7.25117 8.17238 7.54744 7.86363C7.84372 7.55489 8.01016 7.13613 8.01016 6.6995C8.01016 6.26287 7.84372 5.84411 7.54744 5.53537L6.32878 4.2654C6.0325 3.95666 5.63066 3.7832 5.21167 3.7832C4.79267 3.7832 4.39083 3.95666 4.09456 4.2654C3.79828 4.57415 3.63184 4.9929 3.63184 5.42954C3.63184 5.64574 3.6727 5.85982 3.75209 6.05956C3.83149 6.2593 3.94786 6.44079 4.09456 6.59367L5.31322 7.86363Z" fill="black"/>
<path d="M73.9197 26.6366C74.1156 26.723 74.3262 26.7675 74.5389 26.7673H87.8332C88.0879 26.7667 88.3387 26.7022 88.5644 26.5792C91.5623 24.9471 93.2585 22.3356 93.2197 19.4138C93.1943 18.0755 92.8161 16.7704 92.1265 15.6411C91.4369 14.5119 90.4626 13.6021 89.31 13.0113C88.3432 12.5256 87.2788 12.2884 86.206 12.3195C85.1331 12.3506 84.083 12.6491 83.1436 13.19C79.0191 8.17789 74.984 8.70469 73.3618 9.20421C71.7261 9.76132 70.2909 10.8219 69.2453 12.2462C68.1998 13.6705 67.593 15.3915 67.505 17.1824C67.2784 21.2218 69.6769 24.7551 73.9197 26.6366ZM74.2582 12.3631C76.6188 11.636 79.1942 13.0498 81.5124 16.3452C81.6362 16.5217 81.7926 16.6706 81.9723 16.7834C82.1521 16.8962 82.3516 16.9704 82.5592 17.0019C82.7668 17.0333 82.9784 17.0213 83.1815 16.9665C83.3846 16.9118 83.5752 16.8153 83.7421 16.6829C84.3003 16.1577 84.9919 15.8114 85.7342 15.6854C86.4765 15.5594 87.2378 15.6592 87.9271 15.9726C88.5518 16.2991 89.08 16.7958 89.4556 17.41C89.8312 18.0241 90.0401 18.7328 90.0602 19.4608C90.081 21.0233 89.1503 22.4382 87.4288 23.4748H74.8684C72.0456 22.1277 70.5146 19.9171 70.6554 17.3734C70.7089 16.2599 71.08 15.1883 71.7211 14.2957C72.3623 13.4032 73.2444 12.7303 74.2546 12.3631H74.2582Z" fill="black"/>
<path d="M98.4156 51.3114H93.2457C92.9976 51.3113 92.753 51.3722 92.5317 51.489C92.3104 51.6059 92.1187 51.7755 91.972 51.984L78.1668 71.58H70.2527L63.4534 46.9418C64.2512 46.3591 64.8544 45.5313 65.1789 44.5741C65.5035 43.6168 65.533 42.5779 65.2635 41.6023C64.994 40.6267 64.4389 39.7631 63.6756 39.1322C62.9124 38.5013 61.9791 38.1345 61.0062 38.083L58.3305 28.3871C58.2149 27.9676 57.9441 27.6131 57.5776 27.4017C57.2112 27.1902 56.7792 27.1392 56.3766 27.2597C55.974 27.3802 55.6339 27.6624 55.431 28.0442C55.2281 28.4261 55.179 28.8763 55.2947 29.2958L57.7113 38.0605H54.2575L47.7868 31.3936C47.4431 31.0452 47.0763 30.7224 46.6891 30.4275C48.3673 29.4189 49.6942 27.8802 50.4781 26.034C51.262 24.1878 51.4621 22.1296 51.0497 20.157C50.6373 18.1845 49.6335 16.3997 48.1837 15.0606C46.7338 13.7216 44.9129 12.8977 42.9841 12.7081C41.0554 12.5185 39.1188 12.9729 37.4542 14.0057C35.7895 15.0385 34.4832 16.5962 33.724 18.4536C32.9648 20.311 32.7921 22.3718 33.2308 24.3383C33.6694 26.3047 34.6968 28.0748 36.1644 29.3927C35.421 29.763 34.7238 30.2264 34.0881 30.7728C33.8665 29.8922 33.4745 29.0681 32.9362 28.3512C32.3978 27.6342 31.7245 27.0395 30.9576 26.6036C30.1907 26.1676 29.3464 25.8997 28.4765 25.8162C27.6066 25.7327 26.7295 25.8353 25.899 26.1179C25.0686 26.4005 24.3024 26.857 23.6474 27.4594C22.9924 28.0618 22.4625 28.7973 22.0903 29.6209C21.718 30.4445 21.5112 31.3386 21.4827 32.2485C21.4541 33.1584 21.6043 34.0647 21.924 34.9119C21.5858 34.9508 21.269 35.1043 21.0225 35.3488C20.776 35.5934 20.6132 35.9154 20.5591 36.2656L18.0315 51.9652C17.7352 53.7583 18.1229 55.6012 19.112 57.1006C20.1011 58.6001 21.6133 59.6374 23.326 59.9913C23.7687 60.0865 24.2198 60.1332 24.6719 60.1306C25.6167 60.1272 26.5502 59.9152 27.4107 59.5088L27.3467 68.7277L22.8024 78.0342C22.3102 79.0265 22.0698 80.1334 22.1041 81.2498C22.1384 82.3662 22.4462 83.4549 22.9983 84.4123H20.6187C20.3008 84.4121 19.9902 84.5121 19.7277 84.6992L2.41278 97.0094C2.07428 97.2586 1.84334 97.6365 1.76974 98.0615C1.69614 98.4866 1.78578 98.9247 2.01933 99.2815C2.25289 99.6383 2.61164 99.8852 3.01824 99.9689C3.42485 100.053 3.84673 99.9664 4.19293 99.729L21.1107 87.7001H28.4886H28.5084H28.5274H48.7663C49.1608 87.7003 49.5411 87.5466 49.8324 87.2692L62.8387 74.8725H78.9666C79.2147 74.8725 79.4593 74.8117 79.6806 74.6948C79.9019 74.5779 80.0936 74.4084 80.2403 74.1999L94.05 54.6039H98.4201C98.839 54.6039 99.2409 54.4304 99.5371 54.1217C99.8334 53.813 99.9998 53.3942 99.9998 52.9576C99.9998 52.521 99.8334 52.1023 99.5371 51.7935C99.2409 51.4848 98.839 51.3114 98.4201 51.3114H98.4156ZM42.1232 15.9744C43.304 15.9744 44.4584 16.3393 45.4402 17.023C46.4221 17.7066 47.1874 18.6784 47.6393 19.8153C48.0912 20.9522 48.2094 22.2032 47.979 23.4101C47.7486 24.617 47.18 25.7257 46.345 26.5958C45.51 27.466 44.4462 28.0585 43.288 28.2986C42.1298 28.5387 40.9293 28.4155 39.8384 27.9445C38.7474 27.4736 37.8149 26.6761 37.1588 25.653C36.5028 24.6298 36.1526 23.4268 36.1526 22.1963C36.1543 20.5467 36.7839 18.9651 37.9032 17.7987C39.0225 16.6322 40.5402 15.9761 42.1232 15.9744ZM40.5362 31.6363H40.6509C42.4909 31.629 44.2585 32.3832 45.5652 33.7332L52.4981 40.876C52.7933 41.1814 53.1924 41.3528 53.6084 41.353H60.748C61.1187 41.3515 61.4775 41.49 61.7579 41.7427C62.0382 41.9955 62.2213 42.3455 62.2733 42.7281C62.3252 43.1106 62.2425 43.4998 62.0405 43.8238C61.8384 44.1477 61.5306 44.3844 61.1741 44.4902C60.5882 44.6502 61.9134 44.4903 46.5022 44.5608L41.865 40.1959C41.5538 39.9032 41.1437 39.7514 40.7251 39.7738C40.3064 39.7962 39.9134 39.991 39.6326 40.3154C39.3518 40.6397 39.2061 41.067 39.2276 41.5033C39.2491 41.9396 39.436 42.3491 39.7472 42.6417L44.2202 46.842L44.0478 48.1797C39.3212 50.001 33.9464 49.873 31.3493 49.6595C31.9588 45.3679 32.7957 41.1147 33.8561 36.9194C34.2612 35.3982 35.1341 34.0576 36.3408 33.1033C37.5475 32.149 39.0214 31.6336 40.5362 31.6363ZM58.3549 74.6834C58.0879 74.9382 57.7737 75.1334 57.4317 75.2569C57.0897 75.3805 56.727 75.4299 56.366 75.4021C56.005 75.3742 55.6532 75.2698 55.3324 75.095C55.0116 74.9203 54.7284 74.6791 54.5003 74.3861L49.0696 67.4192C46.4102 64.0082 40.9208 61.4871 37.3162 61.1418C35.3754 60.7655 33.1637 61.3704 31.4775 59.1964C31.1095 58.7251 30.8366 58.1812 30.6752 57.5974C30.5137 57.0135 30.4669 56.4017 30.5377 55.7986C30.6509 54.824 30.7682 53.8676 30.8898 52.9294C31.7636 53.0084 32.9444 53.0827 34.3291 53.0827C37.4537 53.1077 40.5662 52.6777 43.5766 51.8052L43.1794 54.8767C43.1341 55.2255 43.1973 55.5803 43.3598 55.889C43.5223 56.1977 43.7754 56.4439 44.0821 56.5916L48.2634 58.5953C49.9586 59.4086 51.4271 60.6582 52.5306 62.2265L58.7015 71.0043C59.0899 71.5539 59.2694 72.2338 59.2054 72.9131C59.1414 73.5924 58.8384 74.223 58.3549 74.6834ZM27.8919 29.0635C28.5359 29.0642 29.1653 29.2639 29.7004 29.6373C30.2355 30.0107 30.6524 30.5411 30.8984 31.1613C31.1443 31.7816 31.2083 32.4639 31.0822 33.122C30.9562 33.7802 30.6457 34.3846 30.19 34.8589C29.7344 35.3332 29.1541 35.6561 28.5224 35.7867C27.8907 35.9174 27.236 35.85 26.641 35.593C26.0461 35.3359 25.5377 34.9009 25.1799 34.3428C24.8222 33.7848 24.6313 33.1287 24.6313 32.4576C24.6322 31.5571 24.9762 30.6938 25.5876 30.0574C26.1989 29.4209 27.0278 29.0635 27.8919 29.0635ZM24.6764 56.8371C24.4388 56.8398 24.2015 56.8162 23.9687 56.7666C23.0591 56.5803 22.2553 56.0309 21.7291 55.2356C21.2029 54.4402 20.9958 53.4621 21.1522 52.5098L23.418 38.4368L29.9573 39.6117C29.2117 42.9908 28.5518 46.7461 27.984 50.8448L27.9786 50.8664V50.8946C27.7763 52.3584 27.5832 53.856 27.4044 55.4101C27.3999 55.4458 27.4044 55.4806 27.3972 55.5154C27.0642 55.9298 26.6479 56.263 26.1778 56.4914C25.7076 56.7198 25.1951 56.8378 24.6764 56.8371ZM28.0733 84.3775C27.5622 84.3064 27.0749 84.1087 26.6522 83.801C26.2295 83.4933 25.8838 83.0844 25.6439 82.6088C25.4041 82.1331 25.2771 81.6045 25.2737 81.0672C25.2703 80.5298 25.3905 79.9995 25.6243 79.5206L30.3373 69.8688C30.4484 69.6414 30.5071 69.3902 30.5089 69.1351L30.5531 62.7542C32.8956 64.4748 35.0062 64.0957 36.891 64.407V71.3053L31.3746 82.5722C31.0735 83.1942 30.5935 83.7025 30.0016 84.0262C29.4097 84.3499 28.7355 84.4727 28.0733 84.3775ZM48.1533 84.4076H33.9942C34.423 83.6446 33.6133 85.2006 39.8772 72.4483C39.9914 72.2153 40.0505 71.9573 40.0496 71.6957V65.1841C42.8002 66.3289 44.7654 67.1191 46.6169 69.4954L52.0476 76.4623C52.7058 77.3013 53.5673 77.9418 54.5427 78.3174L48.1533 84.4076ZM62.2673 71.58C62.1196 70.6698 61.773 69.8072 61.2544 69.0589L55.0835 60.2811C53.6619 58.2611 51.7703 56.6514 49.5868 55.6038L46.467 54.1091L47.2795 47.8486H60.4158L66.9686 71.58H62.2673Z" fill="black"/>
</svg>
