<svg width="74" height="74" viewBox="0 0 74 74" fill="none" xmlns="http://www.w3.org/2000/svg">
<g clip-path="url(#clip0_1441_380)">
<path d="M27.6069 58.6826C28.4047 58.6826 29.0522 58.0356 29.0522 57.2373C29.0522 56.439 28.4047 55.792 27.6069 55.792H10.2632C9.46487 55.792 8.81787 56.439 8.81787 57.2373C8.81787 58.0356 9.46487 58.6826 10.2632 58.6826H27.6069Z" fill="black"/>
<path d="M72.9855 38.0727L56.8324 33.0299C56.6845 32.9797 56.5281 32.9526 56.3683 32.9526C56.3678 32.9526 56.3666 32.9526 56.3661 32.9526C56.2068 32.9526 56.0499 32.9797 55.9025 33.0293L53.7538 33.7006V14.1641C53.7538 13.7649 53.5917 13.4036 53.3303 13.1422L40.6116 0.423431C40.3502 0.161469 39.9889 0 39.5897 0H4.33594C1.94496 0 0 1.94496 0 4.33594V27.6055C0 28.4038 0.647003 29.0508 1.44531 29.0508C2.24362 29.0508 2.89062 28.4038 2.89062 27.6055V4.33594C2.89062 3.53876 3.53876 2.89062 4.33594 2.89062H38.1444V11.4722C38.1444 13.7536 40.0002 15.6094 42.281 15.6094H50.8631V34.6028L39.7489 38.0727C39.1454 38.2613 38.7344 38.8202 38.7344 39.4525V39.5987H10.2634C9.4651 39.5987 8.8181 40.2457 8.8181 41.0441C8.8181 41.8424 9.4651 42.4894 10.2634 42.4894H38.7344V47.6953H10.2634C9.4651 47.6953 8.8181 48.3423 8.8181 49.1406C8.8181 49.9389 9.4651 50.5859 10.2634 50.5859H38.7344V52.9707C38.7344 57.5313 40.1831 61.8114 42.6768 65.3281H4.33594C3.53876 65.3281 2.89062 64.68 2.89062 63.8828V40.6133C2.89062 39.815 2.24362 39.168 1.44531 39.168C0.647003 39.168 0 39.815 0 40.6133V63.8828C0 66.2738 1.94496 68.2188 4.33594 68.2188H45.1361C48.0634 71.0986 51.8314 73.1571 56.0951 73.974C56.1848 73.9915 56.2763 74 56.3672 74C56.4581 74 56.5495 73.9915 56.6393 73.974C66.6989 72.0466 74 63.2132 74 52.9707V39.4525C74 38.8202 73.589 38.2613 72.9855 38.0727ZM42.281 12.7188C41.5939 12.7188 41.035 12.1598 41.035 11.4722V4.93439L48.8188 12.7188H42.281ZM71.1094 52.9707C71.1094 61.7363 64.9267 69.3084 56.3672 71.0811C47.8077 69.3084 41.625 61.7363 41.625 52.9707V40.5156L56.3672 35.9126L71.1094 40.5156V52.9707Z" fill="black"/>
<path d="M55.9364 39.0754L45.5302 42.3245C44.9266 42.5131 44.5156 43.0715 44.5156 43.7038V52.9702C44.5156 59.9754 49.2321 66.1631 55.9844 68.0172C56.1097 68.0517 56.2385 68.0686 56.3672 68.0686C56.4959 68.0686 56.6246 68.0517 56.75 68.0172C63.5023 66.1631 68.2188 59.9754 68.2188 52.9707V43.7043C68.2188 43.072 67.8077 42.5131 67.2042 42.3245L56.798 39.0754C56.5174 38.9879 56.217 38.9879 55.9364 39.0754ZM65.3281 44.7669V52.9702C65.3281 58.5442 61.6629 63.4831 56.3672 65.1181C51.0715 63.4831 47.4062 58.5442 47.4062 52.9702V44.7669L56.3672 41.9694L65.3281 44.7669Z" fill="black"/>
<path d="M52.7641 51.7926C52.1995 51.228 51.2849 51.228 50.7203 51.7926C50.1557 52.3572 50.1557 53.2723 50.7203 53.8363L54.0502 57.1668C54.3325 57.4491 54.7023 57.5902 55.0721 57.5902C55.4418 57.5902 55.8116 57.4491 56.0939 57.1668L62.0141 51.2466C62.5786 50.6821 62.5786 49.7669 62.0141 49.2023C61.4495 48.6383 60.5349 48.6383 59.9697 49.2023L55.0721 54.1006L52.7641 51.7926Z" fill="black"/>
<path d="M31.0757 14.1626H24.1382C23.3399 14.1626 22.6929 14.8102 22.6929 15.6079V19.9438H18.3569C17.5586 19.9438 16.9116 20.5914 16.9116 21.3892V28.3267C16.9116 29.125 17.5586 29.772 18.3569 29.772H22.6929V34.1079C22.6929 34.9062 23.3399 35.5532 24.1382 35.5532H31.0757C31.8734 35.5532 32.521 34.9062 32.521 34.1079V29.772H36.8569C37.6547 29.772 38.3022 29.125 38.3022 28.3267V21.3892C38.3022 20.5914 37.6547 19.9438 36.8569 19.9438H32.521V15.6079C32.521 14.8102 31.8734 14.1626 31.0757 14.1626ZM35.4116 22.8345V26.8813H31.0757C30.2774 26.8813 29.6304 27.5289 29.6304 28.3267V32.6626H25.5835V28.3267C25.5835 27.5289 24.9359 26.8813 24.1382 26.8813H19.8022V22.8345H24.1382C24.9359 22.8345 25.5835 22.1875 25.5835 21.3892V17.0532H29.6304V21.3892C29.6304 22.1875 30.2774 22.8345 31.0757 22.8345H35.4116Z" fill="black"/>
<path d="M1.44531 35.5547C1.82527 35.5547 2.19846 35.4 2.46719 35.1313C2.73593 34.8625 2.89062 34.4893 2.89062 34.1094C2.89062 33.7294 2.73593 33.3562 2.46719 33.0875C2.19846 32.8188 1.82527 32.6641 1.44531 32.6641C1.06535 32.6641 0.692169 32.8188 0.423431 33.0875C0.154694 33.3562 0 33.7294 0 34.1094C0 34.4893 0.154694 34.8625 0.423431 35.1313C0.692169 35.4 1.06535 35.5547 1.44531 35.5547Z" fill="black"/>
</g>
<defs>
<clipPath id="clip0_1441_380">
<rect width="74" height="74" fill="white"/>
</clipPath>
</defs>
</svg>
