<svg width="100" height="100" viewBox="0 0 100 100" fill="none" xmlns="http://www.w3.org/2000/svg">
<g clip-path="url(#clip0_1519_102)">
<path d="M30.9031 61.511C31.3895 61.1845 31.6648 60.6233 31.6252 60.0388C31.5857 59.4543 31.2373 58.9353 30.7113 58.6773C30.1853 58.4193 29.5617 58.4616 29.0753 58.7881C27.0193 60.1705 25.1027 61.7495 23.3523 63.5028C17.9301 68.8839 14.2864 75.7967 12.9113 83.311C12.7484 84.2019 13.3385 85.0563 14.2294 85.2192C15.1203 85.3822 15.9746 84.7921 16.1376 83.9012C17.3921 77.0412 20.7197 70.7309 25.672 65.8209C27.2709 64.217 29.0229 62.7735 30.9031 61.511Z" fill="black"/>
<path d="M94.2243 88.6033C93.4753 67.5495 77.9965 49.9384 57.2129 46.4935C57.4099 46.0971 57.5744 45.6853 57.7047 45.2623C59.8606 45.486 61.9098 44.2752 62.7538 42.2787C64.0481 39.1871 64.7275 35.8728 64.7538 32.5213C64.5421 30.583 63.9782 28.6997 63.0899 26.964L79.7194 34.8328C80.463 35.1923 81.2788 35.3773 82.1047 35.3738C84.6373 35.3689 86.8443 33.6474 87.4656 31.1922C88.087 28.737 86.9645 26.173 84.7391 24.964L84.6506 24.9181C86.2528 23.5778 86.9624 21.4486 86.4845 19.4151C86.0067 17.3816 84.423 15.7913 82.3915 15.3049C71.8325 12.7508 61.0129 10.5738 51.8948 9.18035C39.5407 4.11641 30.0653 1.52461 23.7702 1.52461C16.5427 1.4451 9.37888 2.88377 2.74238 5.74756C1.56805 6.27813 0.815001 7.4491 0.819432 8.73772V29.9017C0.816581 31.0607 1.42588 32.1351 2.42203 32.7276C3.41818 33.3201 4.65315 33.3427 5.67025 32.7869L17.5047 26.3295C20.266 24.7746 23.6833 24.9884 26.2293 26.8754C27.9743 28.2605 29.4449 29.9596 30.5653 31.8853C32.2948 34.7541 34.1965 37.7213 36.2014 40.7082C36.603 41.3017 36.9932 41.8558 37.3489 42.3836L37.9276 43.2164C38.9106 44.6253 40.5212 45.4637 42.2391 45.4607H42.3178C42.4506 45.8172 42.6084 46.164 42.7899 46.4984C22.008 49.9413 6.52836 67.5483 5.77517 88.6C2.92963 88.9637 0.802909 91.3937 0.819432 94.2623C0.819432 97.4312 3.38829 100 6.55714 100H93.4424C96.4553 100.005 98.9561 97.6731 99.1623 94.6673C99.3686 91.6615 97.2096 89.0102 94.2243 88.6033ZM45.9489 35.5394C44.7896 33.3034 44.4531 30.7311 44.9981 28.2722C45.0714 27.9582 45.2909 27.6984 45.5883 27.5738C47.3321 27.3216 49.1094 27.6813 50.6178 28.5918C52.8119 29.5176 54.3497 31.5385 54.6571 33.9C54.6241 34.5086 54.5319 35.1126 54.3817 35.7033C51.8279 34.0586 48.5648 33.9952 45.9489 35.5394ZM83.3079 21.1C83.0992 22.2305 82.0704 23.0208 80.9243 22.9312C75.3981 20.0115 69.826 17.2361 64.5047 14.7344C70.0784 15.8328 75.8768 17.1033 81.6112 18.4935C82.7775 18.7763 83.5214 19.919 83.3079 21.1ZM40.6293 41.3492L40.0473 40.5099C39.6916 39.9984 39.3096 39.4492 38.9194 38.8705C36.9522 35.9328 35.0801 33.0099 33.3719 30.182C32.0414 27.906 30.296 25.8998 28.226 24.2672C24.6508 21.5871 19.8331 21.2627 15.9309 23.4394L4.09812 29.9017L4.07353 8.74428C10.2909 6.06653 17.0012 4.72391 23.7702 4.8033C30.1899 4.8033 40.3588 7.75412 53.9932 13.5885C62.8604 17.3951 73.2227 22.4607 83.1604 27.8508C84.2246 28.4287 84.6481 29.7401 84.1227 30.8312C83.5671 31.9272 82.2467 32.3912 81.1276 31.8836L58.8981 21.359C58.1851 21.0298 57.3386 21.2608 56.8916 21.9066C56.436 22.5613 56.5045 23.4462 57.0555 24.023C59.4273 26.4141 60.9755 29.4988 61.4752 32.8295C61.3927 35.6452 60.7995 38.4226 59.7243 41.0262C59.3907 41.8084 58.5144 42.2056 57.7063 41.941C57.6293 41.9138 57.5538 41.8826 57.4801 41.8476C57.4331 41.8134 57.3844 41.7817 57.3342 41.7525C56.8515 41.4703 56.5555 40.9526 56.5571 40.3935C56.5636 40.1976 56.6007 40.0041 56.667 39.8197L56.8473 39.2328C57.4247 37.4571 57.789 35.6191 57.9325 33.7574C57.591 30.1804 55.3341 27.071 52.0391 25.6377C50.2358 24.7722 46.8473 23.4836 44.3096 24.5541C43.1459 25.0456 42.2594 26.027 41.8883 27.2344C40.6965 30.7918 41.8883 34.5361 43.3735 37.8426C42.4699 39.0954 41.9417 40.5794 41.8506 42.1213C41.359 42.0314 40.9214 41.7547 40.6293 41.3492ZM45.144 43.3361C45.1049 43.1003 45.0841 42.8619 45.0817 42.623C45.0787 41.3177 45.5958 40.065 46.5188 39.142C47.4418 38.219 48.6945 37.7019 49.9998 37.7049C51.3044 37.7061 52.5523 38.2389 53.4555 39.1803C52.9798 40.8549 53.4774 42.655 54.7457 43.8476C54.5325 44.6825 54.0995 45.445 53.4916 46.0558C52.3358 45.9607 51.1719 45.9017 49.9998 45.9017C48.8276 45.9017 47.6588 45.9607 46.5014 46.0508C45.7698 45.3147 45.294 44.363 45.144 43.3361ZM95.185 96.0049C94.7232 96.467 94.0956 96.725 93.4424 96.7213H6.55714C5.19906 96.7213 4.09812 95.6204 4.09812 94.2623C4.09812 92.9042 5.19906 91.8033 6.55714 91.8033H17.2129C18.1183 91.8033 18.8522 91.0693 18.8522 90.164C18.8522 89.2586 18.1183 88.5246 17.2129 88.5246H9.0555C9.70072 72.2595 19.9144 57.9195 35.0751 51.993C50.2358 46.0665 67.4669 49.678 78.9719 61.1935C86.2854 68.4551 90.5651 78.2253 90.944 88.5246H25.4096C24.5042 88.5246 23.7702 89.2586 23.7702 90.164C23.7702 91.0693 24.5042 91.8033 25.4096 91.8033H93.4424C94.4393 91.8002 95.3395 92.3993 95.7215 93.3202C96.1034 94.2411 95.8915 95.3015 95.185 96.0049Z" fill="black"/>
<path d="M15.3917 8.76707C13.042 9.16289 10.7291 9.75289 8.47695 10.531C7.81791 10.7606 7.37649 11.3823 7.37695 12.0802V19.672C7.37695 20.5774 8.11091 21.3113 9.0163 21.3113C9.92168 21.3113 10.6556 20.5774 10.6556 19.672V13.2638C12.3869 12.724 14.1527 12.3017 15.9409 11.9999C16.8336 11.8482 17.4343 11.0016 17.2827 10.1089C17.131 9.21617 16.2844 8.61542 15.3917 8.76707Z" fill="black"/>
<path d="M35.2458 59.016C36.1512 59.016 36.8851 58.282 36.8851 57.3766C36.8851 56.4713 36.1512 55.7373 35.2458 55.7373C34.3404 55.7373 33.6064 56.4713 33.6064 57.3766C33.6064 58.282 34.3404 59.016 35.2458 59.016Z" fill="black"/>
</g>
<defs>
<clipPath id="clip0_1519_102">
<rect width="100" height="100" fill="white"/>
</clipPath>
</defs>
</svg>
