<svg width="100" height="100" viewBox="0 0 100 100" fill="none" xmlns="http://www.w3.org/2000/svg">
<path d="M70.8333 17.7083H29.1667C18.2542 17.7083 9.375 26.5875 9.375 37.5V62.5C9.375 73.4125 18.2542 82.2916 29.1667 82.2916H70.8333C81.7458 82.2916 90.625 73.4125 90.625 62.5V37.5C90.625 26.5875 81.7458 17.7083 70.8333 17.7083ZM29.1667 23.9583H70.8333C76.475 23.9583 81.3125 27.4331 83.3458 32.3456L57.5124 49.5707C52.9499 52.6082 47.05 52.6082 42.4917 49.5707L16.6583 32.3456C18.6874 27.4289 23.525 23.9583 29.1667 23.9583ZM70.8333 76.0416H29.1667C21.7 76.0416 15.625 69.9666 15.625 62.5V39.1708L39.0208 54.7709C42.3541 56.9917 46.175 58.1039 50 58.1039C53.8208 58.1039 57.6417 56.9917 60.9792 54.7709L84.375 39.1708V62.5C84.375 69.9666 78.3 76.0416 70.8333 76.0416Z" fill="#82D1DA"/>
</svg>
