<svg width="37" height="37" viewBox="0 0 37 37" fill="none" xmlns="http://www.w3.org/2000/svg">
<path d="M36.6609 27.1252C36.6177 26.872 36.5653 26.651 36.5109 26.4541C36.1828 25.2822 35.1627 24.3896 33.9121 24.1833L25.7896 22.8316C24.5934 22.6309 23.3953 23.094 22.6603 24.0353C22.559 24.1646 22.4615 24.2958 22.3715 24.4289C22.2384 24.6239 21.974 24.8059 21.6872 24.6803C17.474 22.8484 14.1478 19.522 12.3178 15.3089C12.1903 15.0183 12.3683 14.7633 12.5596 14.6339C12.7377 14.5139 12.9102 14.3846 13.0771 14.2496C13.9902 13.5109 14.444 12.3296 14.2603 11.1652L13.0021 3.1871C12.809 1.9646 11.9709 0.965154 10.8122 0.582654C10.5403 0.492654 10.2253 0.410241 9.8597 0.344616C7.48595 -0.0791336 5.05777 0.592045 3.19215 2.1933C1.23652 3.8733 0.152758 6.31467 0.224008 8.88717C0.634633 24.1159 12.8821 36.3653 28.1109 36.776C28.1877 36.7778 28.2647 36.7796 28.3416 36.7796C30.8109 36.7796 33.1453 35.7108 34.7746 33.8245C36.389 31.9552 37.0771 29.512 36.6609 27.1252ZM32.6428 31.9871C31.516 33.2902 29.8771 33.9859 28.184 33.9671C14.4515 33.5959 3.40398 22.5465 3.03273 8.8121C2.98773 7.08897 3.7115 5.45404 5.024 4.32716C6.01588 3.47591 7.19899 3.02963 8.43274 3.02963C8.74024 3.02963 9.05155 3.05765 9.3628 3.11203C9.5803 3.1514 9.76586 3.19841 9.92711 3.25279C10.0827 3.30341 10.1971 3.44774 10.2252 3.62587L11.4834 11.604C11.5115 11.7784 11.4441 11.9547 11.3109 12.0615C11.2022 12.1497 11.0915 12.2321 10.9771 12.309C9.60085 13.2446 9.09095 14.9396 9.73782 16.4302C11.8528 21.2977 15.6984 25.1434 20.564 27.2584C22.049 27.9034 23.7478 27.3954 24.6947 26.0135C24.7509 25.9329 24.809 25.8522 24.8727 25.7697C24.974 25.6404 25.1503 25.5785 25.3285 25.6047L33.4509 26.9565C33.6234 26.9865 33.7677 27.0914 33.8034 27.2133C33.8371 27.3295 33.8652 27.4591 33.8915 27.6072C34.1615 29.1597 33.706 30.7552 32.6428 31.9871Z" fill="#82D1DA"/>
</svg>
