<svg width="70" height="70" viewBox="0 0 70 70" fill="none" xmlns="http://www.w3.org/2000/svg">
<g clip-path="url(#clip0_1444_461)">
<path d="M51.83 17.0863L51.83 17.0863C47.2969 16.8325 42.6493 18.7385 39.0765 22.3113C35.5149 25.8729 33.6082 30.5025 33.8498 35.0225V46.3437L22.7255 35.2192C22.2762 34.77 21.5478 34.77 21.0986 35.2192C20.6494 35.6685 20.6494 36.3969 21.0987 36.8461L26.3871 42.1348C23.9779 41.5989 21.6086 40.2905 19.698 38.3798C17.2821 35.9641 15.8302 32.8171 15.6829 29.7823C18.7176 29.9297 21.8648 31.3818 24.2804 33.7974C25.1554 34.6725 25.9096 35.642 26.5219 36.6792C26.8449 37.2263 27.5503 37.4079 28.0973 37.0849C28.6443 36.7618 28.8261 36.0564 28.503 35.5094C27.7921 34.3054 26.9188 33.182 25.9072 32.1707C22.7061 28.9696 18.5414 27.2606 14.4732 27.489L14.4731 27.489C13.8887 27.5219 13.4223 27.9884 13.3893 28.5728C13.1601 32.6394 14.8699 36.8059 18.071 40.0069C21.0816 43.0176 24.9458 44.709 28.7781 44.709C28.8386 44.709 28.8994 44.7078 28.9587 44.7067L32.5677 48.3157C33.3131 49.0611 33.7595 50.0245 33.8496 51.0622V67.8242H24.0405C23.4663 67.8242 22.999 67.3568 22.999 66.7827V48.1514C22.999 47.5161 22.4839 47.001 21.8486 47.001H3.21727C2.64305 47.001 2.17578 46.5336 2.17578 45.9595V24.0405C2.17578 23.4663 2.64317 22.999 3.21727 22.999H21.8485C22.4838 22.999 22.9989 22.4839 22.9989 21.8486V3.21727C22.9989 2.64305 23.4663 2.17578 24.0404 2.17578H45.9594C46.5336 2.17578 47.0009 2.64317 47.0009 3.21727V14.1764C47.0009 14.8117 47.5159 15.3268 48.1512 15.3268C48.7866 15.3268 49.3016 14.8117 49.3016 14.1764V3.21727C49.3018 1.37431 47.8026 -0.125 45.9595 -0.125H24.0405C22.1974 -0.125 20.6982 1.37431 20.6982 3.21727V20.6981H3.21727C1.37431 20.6982 -0.125 22.1974 -0.125 24.0405V45.9595C-0.125 47.8026 1.37431 49.3018 3.21727 49.3018H20.6981V66.7826C20.6981 68.6257 22.1974 70.1249 24.0404 70.1249H45.9594C47.8025 70.1249 49.3016 68.6256 49.3016 66.7826V49.3018H66.7825C68.6256 49.3018 70.1247 47.8025 70.1247 45.9595V24.0405C70.125 22.1974 68.6257 20.6982 66.7827 20.6982H55.8232C55.1879 20.6982 54.6728 21.2133 54.6728 21.8486C54.6728 22.4839 55.1879 22.999 55.8232 22.999H66.7827C67.3569 22.999 67.8242 23.4664 67.8242 24.0405V45.9595C67.8242 46.5337 67.3568 47.001 66.7827 47.001H48.1514C47.5161 47.001 47.001 47.5161 47.001 48.1514V66.7826C47.001 67.3568 46.5336 67.8241 45.9595 67.8241H36.1504V36.1646C40.2893 36.0494 44.4348 34.1776 47.6888 30.9237C51.2614 27.351 53.1694 22.7037 52.9138 18.1701C52.8809 17.5857 52.4144 17.1193 51.83 17.0863ZM40.7033 23.9382C43.4873 21.1542 47.1291 19.4971 50.6272 19.3728C50.5029 22.8709 48.8458 26.5128 46.0619 29.2967C43.7613 31.5971 40.8745 33.1279 37.9666 33.6602L43.4851 28.1417C43.9344 27.6925 43.9344 26.964 43.4851 26.5149C43.0359 26.0656 42.3074 26.0656 41.8583 26.5149L36.3398 32.0334C36.8721 29.1255 38.4029 26.2386 40.7033 23.9382Z" fill="black" stroke="black" stroke-width="0.25"/>
</g>
<defs>
<clipPath id="clip0_1444_461">
<rect width="70" height="70" fill="white"/>
</clipPath>
</defs>
</svg>
