<svg width="31" height="37" viewBox="0 0 31 37" fill="none" xmlns="http://www.w3.org/2000/svg">
<path d="M14.0938 19.7637V27.875C14.0938 28.6512 14.7238 29.2812 15.5 29.2812C16.2762 29.2812 16.9062 28.6512 16.9062 27.875V19.7637C21.665 19.0737 25.3438 15.0087 25.3438 10.0625C25.3438 4.63438 20.9281 0.21875 15.5 0.21875C10.0719 0.21875 5.65625 4.63438 5.65625 10.0625C5.65625 15.0087 9.335 19.0737 14.0938 19.7637ZM15.5 3.03125C19.3775 3.03125 22.5312 6.185 22.5312 10.0625C22.5312 13.94 19.3775 17.0938 15.5 17.0938C11.6225 17.0938 8.46875 13.94 8.46875 10.0625C8.46875 6.185 11.6225 3.03125 15.5 3.03125ZM30.0312 29.75C30.0312 33.7588 23.7838 36.7812 15.5 36.7812C7.21625 36.7812 0.96875 33.7588 0.96875 29.75C0.96875 26.7987 4.19377 24.3839 9.59565 23.2907C10.3625 23.1407 11.0993 23.6281 11.2531 24.3894C11.4087 25.1506 10.9156 25.8932 10.1544 26.0469C5.97123 26.8944 3.78125 28.5519 3.78125 29.75C3.78125 31.4694 8.34687 33.9688 15.5 33.9688C22.6531 33.9688 27.2188 31.4694 27.2188 29.75C27.2188 28.5519 25.0307 26.8944 20.8456 26.0469C20.0844 25.8932 19.5932 25.1506 19.7469 24.3894C19.9007 23.6281 20.645 23.1407 21.4044 23.2907C26.8062 24.3839 30.0312 26.7987 30.0312 29.75Z" fill="#82D1DA"/>
</svg>
