<svg width="53" height="100" viewBox="0 0 53 100" fill="none" xmlns="http://www.w3.org/2000/svg">
<path d="M44.9527 0H7.75046C5.69562 0.00240132 3.7256 0.852824 2.27261 2.36469C0.819612 3.87656 0.0023078 5.92641 0 8.06452V91.9355C0.0023078 94.0736 0.819612 96.1234 2.27261 97.6353C3.7256 99.1472 5.69562 99.9976 7.75046 100H44.9527C47.0075 99.9976 48.9775 99.1472 50.4305 97.6353C51.8835 96.1234 52.7008 94.0736 52.7031 91.9355V8.06452C52.7008 5.92641 51.8835 3.87656 50.4305 2.36469C48.9775 0.852824 47.0075 0.00240132 44.9527 0ZM36.8616 3.22581L35.9315 8.06452H16.7718L15.8417 3.22581H36.8616ZM49.6029 91.9355C49.6016 93.2183 49.1112 94.4483 48.2394 95.3554C47.3676 96.2625 46.1856 96.7728 44.9527 96.7742H7.75046C6.51755 96.7728 5.33554 96.2625 4.46375 95.3554C3.59195 94.4483 3.10157 93.2183 3.10018 91.9355V8.06452C3.10157 6.78165 3.59195 5.55174 4.46375 4.64462C5.33554 3.7375 6.51755 3.22725 7.75046 3.22581H12.6799L13.9809 9.99375C14.0511 10.3594 14.241 10.6884 14.5181 10.9248C14.7953 11.1612 15.1426 11.2903 15.5009 11.2903H37.2022C37.5606 11.2903 37.9078 11.1612 38.185 10.9248C38.4621 10.6884 38.652 10.3594 38.7223 9.99375L40.0232 3.22581H44.9527C46.1856 3.22725 47.3676 3.7375 48.2394 4.64462C49.1112 5.55174 49.6016 6.78165 49.6029 8.06452V91.9355Z" fill="black"/>
<path d="M17.0508 90.3223H7.75029C7.33918 90.3223 6.9449 90.4922 6.65421 90.7947C6.36351 91.0972 6.2002 91.5074 6.2002 91.9352C6.2002 92.3629 6.36351 92.7732 6.65421 93.0757C6.9449 93.3781 7.33918 93.5481 7.75029 93.5481H17.0508C17.4619 93.5481 17.8562 93.3781 18.1469 93.0757C18.4376 92.7732 18.6009 92.3629 18.6009 91.9352C18.6009 91.5074 18.4376 91.0972 18.1469 90.7947C17.8562 90.4922 17.4619 90.3223 17.0508 90.3223Z" fill="black"/>
<path d="M23.2516 90.3223H21.7015C21.2903 90.3223 20.8961 90.4922 20.6054 90.7947C20.3147 91.0972 20.1514 91.5074 20.1514 91.9352C20.1514 92.3629 20.3147 92.7732 20.6054 93.0757C20.8961 93.3781 21.2903 93.5481 21.7015 93.5481H23.2516C23.6627 93.5481 24.0569 93.3781 24.3476 93.0757C24.6383 92.7732 24.8016 92.3629 24.8016 91.9352C24.8016 91.5074 24.6383 91.0972 24.3476 90.7947C24.0569 90.4922 23.6627 90.3223 23.2516 90.3223Z" fill="black"/>
</svg>
