<svg width="14" height="14" viewBox="0 0 14 14" fill="none" xmlns="http://www.w3.org/2000/svg">
<path d="M13.3168 13.9999C13.452 13.9999 13.5842 13.9598 13.6966 13.8847C13.8091 13.8096 13.8967 13.7028 13.9484 13.5779C14.0002 13.453 14.0137 13.3155 13.9873 13.1829C13.961 13.0503 13.8958 12.9284 13.8002 12.8328L1.16739 0.200033C1.03918 0.0718172 0.865279 -0.000213623 0.683955 -0.000213623C0.502631 -0.000213623 0.328733 0.0718172 0.200518 0.200033C0.0723028 0.328248 0.000270844 0.502146 0.000270844 0.68347C0.000270844 0.864794 0.0723028 1.03869 0.200518 1.16691L12.8333 13.7997C12.8968 13.8633 12.9721 13.9137 13.0551 13.948C13.138 13.9824 13.227 14 13.3168 13.9999Z" fill="black"/>
<path d="M0.683505 13.9999C0.773297 14 0.862229 13.9824 0.945192 13.948C1.02815 13.9137 1.10351 13.8633 1.16694 13.7997L13.7998 1.16691C13.928 1.03869 14 0.864794 14 0.68347C14 0.502146 13.928 0.328248 13.7998 0.200033C13.6715 0.0718172 13.4976 -0.000213623 13.3163 -0.000213623C13.135 -0.000213623 12.9611 0.0718172 12.8329 0.200033L0.200067 12.8328C0.104439 12.9284 0.0393123 13.0503 0.0129251 13.1829C-0.013462 13.3155 7.61435e-05 13.453 0.0518262 13.5779C0.103576 13.7028 0.191214 13.8096 0.303654 13.8847C0.416093 13.9598 0.548284 13.9999 0.683505 13.9999V13.9999Z" fill="black"/>
</svg>
