<svg width="79" height="79" viewBox="0 0 79 79" fill="none" xmlns="http://www.w3.org/2000/svg">
<path d="M77.7656 37.0363H74.0625C73.3799 37.0363 72.8281 37.5881 72.8281 38.2707V43.2033H70.3495C70.3495 42.5207 69.7977 41.9689 69.1151 41.9689H22.2039C21.5213 41.9689 20.9696 42.5207 20.9696 43.2033H19.7426V41.9738C19.7426 38.567 16.9702 35.7945 13.5633 35.7945C13.5547 35.7945 13.5473 35.7995 13.5386 35.7995H6.17188V20.9722C6.17188 20.2896 5.62011 19.7378 4.9375 19.7378H1.23438C0.551766 19.7378 0 20.2896 0 20.9722V71.5914C0 72.274 0.551766 72.8258 1.23438 72.8258H4.9375C5.62011 72.8258 6.17188 72.274 6.17188 71.5914V65.4245H72.8281V71.5914C72.8281 72.274 73.3799 72.8258 74.0625 72.8258H77.7656C78.4482 72.8258 79 72.274 79 71.5914V38.2707C79 37.5881 78.4482 37.0363 77.7656 37.0363ZM72.8281 45.672V48.1482H70.3495V45.672H72.8281ZM23.4383 55.5495V44.4376H24.6875V53.0783C24.6875 53.7609 25.2393 54.3126 25.9219 54.3126H65.4219C66.1045 54.3126 66.6562 53.7609 66.6562 53.0783V44.4376H67.8808V55.5495H23.4383ZM64.1875 51.8439H27.1562V44.4376H64.1875V51.8439ZM20.9696 48.1482H6.17188V45.672H20.9696V48.1482ZM13.5633 38.2682C13.5695 38.2682 13.5732 38.2645 13.5794 38.2645C15.6173 38.2744 17.2738 39.9346 17.2738 41.9738V43.2033H6.17188V38.2682H13.5633ZM2.46875 70.3571V22.2065H3.70312V36.9968C3.70312 37.0104 3.69572 37.0203 3.69572 37.0326C3.69572 37.045 3.70312 37.0573 3.70312 37.0697V70.3571H2.46875ZM6.17188 62.9557V50.6169H20.9696V56.7839C20.9696 57.4665 21.5213 58.0182 22.2039 58.0182H69.1151C69.7977 58.0182 70.3495 57.4665 70.3495 56.7839V50.6169H72.8281V62.9557H6.17188ZM76.5312 70.3571H75.2969V39.5051H76.5312V70.3571Z" fill="black"/>
<path d="M43.207 6.17432C35.7205 6.17432 29.6289 12.266 29.6289 19.7524C29.6289 27.2389 35.7205 33.3306 43.207 33.3306C50.6935 33.3306 56.7852 27.2389 56.7852 19.7524C56.7852 12.266 50.6935 6.17432 43.207 6.17432ZM43.207 30.8618C37.0808 30.8618 32.0977 25.8786 32.0977 19.7524C32.0977 13.6262 37.0808 8.64307 43.207 8.64307C49.3332 8.64307 54.3164 13.6262 54.3164 19.7524C54.3164 25.8786 49.3332 30.8618 43.207 30.8618Z" fill="black"/>
<path d="M48.1382 18.5156H44.4351V14.8125C44.4351 14.1299 43.8833 13.5781 43.2007 13.5781C42.5181 13.5781 41.9663 14.1299 41.9663 14.8125V18.5156H38.2632C37.5806 18.5156 37.0288 19.0674 37.0288 19.75C37.0288 20.4326 37.5806 20.9844 38.2632 20.9844H41.9663V24.6875C41.9663 25.3701 42.5181 25.9219 43.2007 25.9219C43.8833 25.9219 44.4351 25.3701 44.4351 24.6875V20.9844H48.1382C48.8208 20.9844 49.3726 20.4326 49.3726 19.75C49.3726 19.0674 48.8208 18.5156 48.1382 18.5156Z" fill="black"/>
</svg>
