<svg width="27" height="27" viewBox="0 0 27 27" fill="none" xmlns="http://www.w3.org/2000/svg">
<path d="M13.4999 23.1689C13.4474 23.1688 13.3955 23.1575 13.3478 23.1356C13.3001 23.1137 13.2576 23.0817 13.2234 23.0419C13.2132 23.0302 12.185 21.8327 10.9043 20.0941C8.42832 16.7374 5.47656 12.0445 5.47656 8.75305C5.47564 7.05137 6.01605 5.39351 7.01962 4.01926C8.02319 2.64502 9.43789 1.62563 11.0591 1.10854C12.6803 0.591456 14.424 0.603483 16.0379 1.14288C17.6518 1.68228 19.0523 2.72109 20.0369 4.10905C20.0928 4.18806 20.115 4.28605 20.0987 4.38147C20.0824 4.47689 20.0289 4.56192 19.9498 4.61785C19.8708 4.67379 19.7728 4.69604 19.6774 4.67972C19.582 4.6634 19.497 4.60984 19.441 4.53083C18.546 3.26939 17.2729 2.32533 15.8059 1.83521C14.3388 1.34508 12.7539 1.33429 11.2804 1.80439C9.8068 2.2745 8.52096 3.20113 7.60881 4.45027C6.69666 5.69941 6.20547 7.20632 6.20629 8.75305C6.20629 11.1663 8.08316 15.0404 11.4914 19.6625C12.3627 20.845 13.1139 21.7725 13.4981 22.2381C13.8841 21.7725 14.635 20.8454 15.5067 19.6629C17.4335 17.0501 19.8785 13.3058 20.5922 10.2964C20.6019 10.2485 20.6211 10.2029 20.6488 10.1625C20.6764 10.1222 20.7119 10.0878 20.7531 10.0614C20.7943 10.035 20.8405 10.0172 20.8887 10.009C20.9369 10.0008 20.9864 10.0024 21.034 10.0137C21.0816 10.0249 21.1265 10.0457 21.1659 10.0747C21.2053 10.1037 21.2385 10.1403 21.2635 10.1824C21.2885 10.2244 21.3048 10.2711 21.3114 10.3196C21.318 10.3681 21.3147 10.4174 21.3018 10.4646C20.5604 13.5941 18.0608 17.4288 16.0956 20.0941C14.8149 21.8327 13.7867 23.0302 13.7765 23.0419C13.7423 23.0817 13.6998 23.1137 13.6521 23.1356C13.6044 23.1575 13.5525 23.1688 13.4999 23.1689Z" fill="#82D1DA"/>
<path d="M21.0926 8.12013C21.0005 8.1204 20.9117 8.08584 20.8441 8.02338C20.7764 7.96092 20.7348 7.87517 20.7277 7.78336C20.6865 7.45344 20.6192 7.12732 20.5263 6.80807C20.5166 6.77503 20.5116 6.74074 20.5117 6.70628C20.5108 6.61565 20.5436 6.52792 20.6038 6.46016C20.664 6.3924 20.7473 6.34948 20.8374 6.33973C20.9275 6.32999 21.018 6.35413 21.0913 6.40745C21.1645 6.46077 21.2154 6.53946 21.2338 6.62819C21.335 6.98225 21.4082 7.34374 21.4527 7.70929C21.4543 7.72395 21.4552 7.73869 21.4553 7.75344C21.4558 7.85014 21.4178 7.94309 21.3498 8.01184C21.2818 8.0806 21.1893 8.11955 21.0926 8.12013Z" fill="#82D1DA"/>
<path d="M13.5006 14.4898C12.3717 14.4898 11.2682 14.1551 10.3296 13.5279C9.39098 12.9008 8.65943 12.0094 8.22744 10.9665C7.79544 9.92353 7.68241 8.77593 7.90264 7.66877C8.12287 6.5616 8.66646 5.54461 9.46468 4.74639C10.2629 3.94817 11.2799 3.40458 12.3871 3.18435C13.4942 2.96412 14.6418 3.07715 15.6847 3.50914C16.7277 3.94114 17.6191 4.67269 18.2462 5.6113C18.8734 6.54991 19.2081 7.65341 19.2081 8.78226C19.2064 10.2955 18.6045 11.7462 17.5345 12.8162C16.4645 13.8862 15.0138 14.4881 13.5006 14.4898ZM13.5006 3.80477C12.516 3.80477 11.5536 4.09673 10.735 4.64372C9.91636 5.19071 9.27833 5.96816 8.90158 6.87777C8.52483 7.78737 8.42627 8.78827 8.61838 9.75389C8.81048 10.7195 9.28461 11.6065 9.98081 12.3026C10.677 12.9988 11.564 13.4728 12.5296 13.6649C13.4953 13.8569 14.4962 13.7583 15.4057 13.3815C16.3153 13.0046 17.0927 12.3666 17.6397 11.5479C18.1866 10.7293 18.4785 9.7668 18.4784 8.78226C18.4768 7.46259 17.9518 6.19744 17.0186 5.26433C16.0854 4.33122 14.8202 3.80632 13.5006 3.80477Z" fill="#82D1DA"/>
<path d="M17.8411 12.2594C17.783 12.2594 17.7257 12.2456 17.6741 12.2191C17.6224 12.1926 17.5778 12.1541 17.5441 12.1069C17.0923 11.4669 16.4943 10.944 15.7998 10.5815C15.1053 10.2191 14.3343 10.0277 13.551 10.0231C13.5471 10.0235 13.5432 10.0235 13.5393 10.0231H13.4459C12.6625 10.0277 11.8916 10.2191 11.1971 10.5815C10.5026 10.944 9.90458 11.4669 9.45281 12.1069C9.39618 12.1847 9.31111 12.2369 9.21613 12.2523C9.12115 12.2677 9.02394 12.2449 8.94566 12.189C8.86738 12.133 8.81437 12.0484 8.79818 11.9535C8.78198 11.8587 8.8039 11.7613 8.85917 11.6825C9.38161 10.953 10.0683 10.3567 10.8639 9.94163C11.6594 9.5266 12.5414 9.30454 13.4386 9.2934H13.4499H13.5594C14.4566 9.30454 15.3386 9.5266 16.1341 9.94163C16.9296 10.3567 17.6163 10.953 18.1388 11.6825C18.1666 11.7215 18.1865 11.7656 18.1973 11.8123C18.2081 11.859 18.2096 11.9074 18.2017 11.9546C18.1938 12.0019 18.1767 12.0471 18.1513 12.0878C18.1259 12.1284 18.0928 12.1637 18.0538 12.1915C17.9918 12.2361 17.9174 12.2598 17.8411 12.2594Z" fill="#82D1DA"/>
<path d="M13.5005 10.0272C13.0554 10.0273 12.6204 9.89538 12.2503 9.64818C11.8802 9.40098 11.5917 9.04958 11.4214 8.63843C11.251 8.22728 11.2064 7.77485 11.2932 7.33835C11.38 6.90184 11.5942 6.50087 11.9089 6.18615C12.2236 5.87143 12.6245 5.65709 13.061 5.57024C13.4975 5.48339 13.9499 5.52793 14.3611 5.69822C14.7723 5.86852 15.1237 6.15692 15.371 6.52696C15.6183 6.897 15.7502 7.33205 15.7502 7.7771C15.7497 8.37363 15.5125 8.94556 15.0907 9.3674C14.6689 9.78925 14.097 10.0265 13.5005 10.0272ZM13.5005 6.25707C13.1997 6.257 12.9057 6.34612 12.6557 6.51315C12.4056 6.68019 12.2107 6.91764 12.0955 7.19547C11.9804 7.4733 11.9503 7.77903 12.0089 8.07399C12.0676 8.36895 12.2124 8.63989 12.425 8.85254C12.6377 9.06519 12.9086 9.21 13.2036 9.26866C13.4986 9.32731 13.8043 9.29717 14.0821 9.18205C14.3599 9.06693 14.5974 8.872 14.7644 8.62192C14.9315 8.37184 15.0206 8.07783 15.0205 7.7771C15.02 7.37411 14.8597 6.98777 14.5748 6.70281C14.2898 6.41786 13.9035 6.25756 13.5005 6.25707Z" fill="#82D1DA"/>
<path d="M13.4992 26.2703C9.38166 26.2703 6.15625 24.7477 6.15625 22.8041C6.15625 21.2771 8.11266 19.9866 11.1403 19.5166C11.188 19.5084 11.2369 19.5097 11.2841 19.5205C11.3314 19.5314 11.3759 19.5515 11.4153 19.5798C11.4546 19.608 11.488 19.6438 11.5133 19.6851C11.5387 19.7264 11.5556 19.7723 11.563 19.8201C11.5705 19.868 11.5683 19.9169 11.5566 19.9639C11.545 20.0109 11.5241 20.0551 11.4952 20.094C11.4663 20.1329 11.4299 20.1656 11.3882 20.1902C11.3465 20.2149 11.3003 20.231 11.2523 20.2376C8.68294 20.6371 6.88598 21.6923 6.88598 22.8041C6.88598 24.1256 9.54329 25.5406 13.4992 25.5406C17.455 25.5406 20.1123 24.1256 20.1123 22.8041C20.1123 21.6923 18.3168 20.6371 15.746 20.2376C15.698 20.231 15.6518 20.2149 15.6101 20.1902C15.5684 20.1656 15.5321 20.1329 15.5031 20.094C15.4742 20.0551 15.4533 20.0109 15.4417 19.9639C15.43 19.9169 15.4278 19.868 15.4353 19.8201C15.4427 19.7723 15.4596 19.7264 15.485 19.6851C15.5103 19.6438 15.5437 19.608 15.583 19.5798C15.6224 19.5515 15.667 19.5314 15.7142 19.5205C15.7614 19.5097 15.8103 19.5084 15.858 19.5166C18.8864 19.9866 20.8421 21.2771 20.8421 22.8041C20.8421 24.7477 17.6167 26.2703 13.4992 26.2703Z" fill="#82D1DA"/>
</svg>
