<svg width="14" height="26" viewBox="0 0 14 26" fill="none" xmlns="http://www.w3.org/2000/svg">
<path d="M11.875 0.0378113H2.125C1.58646 0.0384161 1.07016 0.252616 0.689357 0.633419C0.308555 1.01422 0.0943548 1.53053 0.09375 2.06906V23.1941C0.0943548 23.7326 0.308555 24.2489 0.689357 24.6297C1.07016 25.0105 1.58646 25.2247 2.125 25.2253H11.875C12.4135 25.2247 12.9298 25.0105 13.3106 24.6297C13.6914 24.2489 13.9056 23.7326 13.9062 23.1941V2.06906C13.9056 1.53053 13.6914 1.01422 13.3106 0.633419C12.9298 0.252616 12.4135 0.0384161 11.875 0.0378113ZM9.75448 0.850311L9.51073 2.06906H4.48932L4.24557 0.850311H9.75448ZM13.0938 23.1941C13.0934 23.5172 12.9649 23.827 12.7364 24.0554C12.5079 24.2839 12.1981 24.4125 11.875 24.4128H2.125C1.80188 24.4125 1.4921 24.2839 1.26361 24.0554C1.03513 23.827 0.906613 23.5172 0.90625 23.1941V2.06906C0.906613 1.74594 1.03513 1.43616 1.26361 1.20768C1.4921 0.979194 1.80188 0.850674 2.125 0.850311H3.41693L3.75787 2.55499C3.77629 2.64708 3.82605 2.72995 3.89868 2.78949C3.97131 2.84903 4.06233 2.88157 4.15625 2.88156H9.84375C9.93767 2.88157 10.0287 2.84903 10.1013 2.78949C10.174 2.72995 10.2237 2.64708 10.2421 2.55499L10.5831 0.850311H11.875C12.1981 0.850674 12.5079 0.979194 12.7364 1.20768C12.9649 1.43616 13.0934 1.74594 13.0938 2.06906V23.1941Z" fill="#82D1DA"/>
<path d="M4.5625 22.7878H2.125C2.01726 22.7878 1.91392 22.8306 1.83774 22.9068C1.76155 22.983 1.71875 23.0863 1.71875 23.194C1.71875 23.3018 1.76155 23.4051 1.83774 23.4813C1.91392 23.5575 2.01726 23.6003 2.125 23.6003H4.5625C4.67024 23.6003 4.77357 23.5575 4.84976 23.4813C4.92595 23.4051 4.96875 23.3018 4.96875 23.194C4.96875 23.0863 4.92595 22.983 4.84976 22.9068C4.77357 22.8306 4.67024 22.7878 4.5625 22.7878Z" fill="#82D1DA"/>
<path d="M6.1875 22.7878H5.78125C5.67351 22.7878 5.57017 22.8306 5.49399 22.9068C5.4178 22.983 5.375 23.0863 5.375 23.194C5.375 23.3018 5.4178 23.4051 5.49399 23.4813C5.57017 23.5575 5.67351 23.6003 5.78125 23.6003H6.1875C6.29524 23.6003 6.39857 23.5575 6.47476 23.4813C6.55095 23.4051 6.59375 23.3018 6.59375 23.194C6.59375 23.0863 6.55095 22.983 6.47476 22.9068C6.39857 22.8306 6.29524 22.7878 6.1875 22.7878Z" fill="#82D1DA"/>
</svg>
