<svg width="100" height="100" viewBox="0 0 100 100" fill="none" xmlns="http://www.w3.org/2000/svg">
<g clip-path="url(#clip0_1471_3093)">
<path d="M38.085 68.5537C39.163 68.5537 40.0381 67.6786 40.0381 66.6006C40.0381 65.5218 39.163 64.6475 38.085 64.6475C37.0069 64.6475 36.1318 65.5218 36.1318 66.6006C36.1318 67.6786 37.0069 68.5537 38.085 68.5537Z" fill="black"/>
<path d="M14.1846 99.6198C14.5508 99.9875 15.049 100.194 15.5678 100.194H15.5693C16.0889 100.194 16.5871 99.9868 16.9533 99.6175L32.2945 84.1786H63.5163C66.1263 84.1786 68.5791 83.1624 70.4232 81.3153L97.5144 54.1364C100.566 51.0846 100.57 46.1423 97.5152 43.0905C94.471 40.0433 89.5302 40.0258 86.464 43.0928L70.9977 58.627C70.073 55.3433 67.051 52.9294 63.4758 52.9294H34.4391C31.8276 52.9294 29.3747 53.9456 27.5315 55.7912L0.375367 82.9946C-0.385284 83.756 -0.385284 84.9896 0.373841 85.7526L14.1846 99.6198ZM30.2956 58.5515C31.4011 57.4452 32.872 56.8356 34.4391 56.8356H63.4758C65.6296 56.8356 67.3821 58.5881 67.3821 60.7419C67.3821 61.5369 67.1433 62.2952 66.6962 62.9468C66.0271 63.6395 65.3016 64.6481 63.4758 64.6481H45.8977C44.8189 64.6481 43.9446 65.5225 43.9446 66.6013C43.9446 67.6793 44.8189 68.5544 45.8977 68.5544H63.4758C65.9523 68.5544 68.216 67.4024 69.6801 65.4866L89.2289 45.8516C90.7555 44.3249 93.2252 44.3227 94.7526 45.8524C96.2777 47.3759 96.2815 49.8441 94.7495 51.3768L67.6583 78.5565C66.5528 79.6636 65.0818 80.2724 63.5163 80.2724H31.482C30.9616 80.2724 30.4634 80.4799 30.0965 80.8492L15.5663 95.4717L4.51584 84.3755L30.2956 58.5515Z" fill="black"/>
<path d="M15.5762 19.767C15.0314 19.8807 14.5607 20.221 14.283 20.7031C14.0045 21.1846 13.945 21.7621 14.119 22.2901C14.2784 22.7738 18.1336 34.2018 28.0068 39.9018C33.3298 42.9749 39.2182 43.7012 43.5944 43.7012C46.6652 43.7012 48.9899 43.3441 49.8528 43.1893C50.7157 43.3441 53.0404 43.7012 56.1119 43.7012C60.4882 43.7012 66.3781 42.9749 71.7003 39.9018C81.5743 34.2018 85.4272 22.7738 85.5866 22.2901C85.7606 21.7621 85.7011 21.1846 85.4226 20.7031C85.1449 20.221 84.6741 19.8807 84.1302 19.7678C83.857 19.7106 78.1724 18.5593 71.4226 19.6892C72.5525 12.9402 71.4013 7.2548 71.3448 6.98243C71.2311 6.43769 70.8909 5.96695 70.4087 5.68924C69.9273 5.41077 69.3497 5.35202 68.8218 5.52597C68.5547 5.61371 63.0066 7.47757 57.7042 11.8752C55.3109 5.43213 51.4473 1.05591 51.2604 0.846863C50.8904 0.432587 50.3601 0.195312 49.804 0.195312C49.2478 0.195312 48.7183 0.432587 48.3475 0.846863C48.1621 1.05515 44.3222 5.40314 41.9258 11.8126C36.6463 7.45926 31.1486 5.61295 30.8838 5.52597C30.3559 5.35126 29.7783 5.41153 29.2969 5.68924C28.8147 5.96772 28.4744 6.43769 28.3608 6.98243C28.3043 7.2548 27.1538 12.941 28.2829 19.6892C21.5347 18.5593 15.8486 19.7106 15.5762 19.767ZM80.9724 23.2712C79.4396 26.6205 75.8851 32.9758 69.7465 36.5189C65.6632 38.8771 61.0749 39.6218 57.38 39.7545C63.7093 35.8834 68.2717 30.7694 70.4308 23.8663C74.6003 22.9202 78.5653 23.0408 80.9724 23.2712ZM66.9877 21.7301C65.4953 27.2667 62.22 32.1472 55.4856 36.3129C57.5417 32.5608 59.5696 27.4101 59.5696 21.6797C59.5696 19.8235 59.3514 17.9184 58.9272 16.0011C62.0881 13.0516 65.6258 11.1488 67.8444 10.1364C68.0955 12.7373 68.2206 17.1631 66.9877 21.7301ZM49.8062 5.32837C53.1311 9.98841 55.6633 15.8592 55.6633 21.6797C55.6633 28.7674 51.9097 35.0548 49.8032 38.0257C47.6693 35.0273 43.9446 28.7766 43.9446 21.6797C43.9446 15.8875 46.4402 10.0533 49.8062 5.32837ZM31.865 10.1341C34.0599 11.1343 37.5473 13.0081 40.6967 15.9264C40.2619 17.8726 40.0383 19.8036 40.0383 21.6797C40.0383 27.3781 42.0304 32.4898 44.0651 36.2252C37.5366 32.1434 34.2232 27.3155 32.7172 21.7293C31.4903 17.1829 31.6155 12.7419 31.865 10.1341ZM29.2748 23.8663C31.4354 30.7724 35.9902 35.8834 42.3394 39.7629C38.649 39.6324 34.0615 38.8871 29.9599 36.5189C23.8213 32.975 20.266 26.6197 18.7332 23.2712C21.1418 23.0415 25.1068 22.9202 29.2748 23.8663Z" fill="black"/>
</g>
<defs>
<clipPath id="clip0_1471_3093">
<rect width="100" height="100" fill="white"/>
</clipPath>
</defs>
</svg>
