<svg width="20" height="20" viewBox="0 0 20 20" fill="none" xmlns="http://www.w3.org/2000/svg">
<path d="M19.6984 14.6002C19.6754 14.4652 19.6475 14.3473 19.6185 14.2423C19.4435 13.6173 18.8994 13.1412 18.2324 13.0312L13.9004 12.3103C13.2624 12.2033 12.6234 12.4502 12.2314 12.9522C12.1774 13.0212 12.1254 13.0912 12.0774 13.1622C12.0064 13.2662 11.8655 13.3632 11.7125 13.2962C9.46546 12.3192 7.69145 10.5452 6.71545 8.29818C6.64745 8.14318 6.74241 8.0072 6.84441 7.9382C6.93941 7.8742 7.03141 7.80524 7.12041 7.73324C7.60741 7.33924 7.84946 6.70922 7.75146 6.08822L7.08044 1.83322C6.97744 1.18122 6.53047 0.64818 5.91247 0.44418C5.76747 0.39618 5.59947 0.352226 5.40447 0.317226C4.13847 0.0912264 2.84344 0.449188 1.84844 1.30319C0.805442 2.19919 0.227434 3.50126 0.265434 4.87326C0.484434 12.9953 7.01642 19.5283 15.1384 19.7473C15.1794 19.7483 15.2205 19.7492 15.2615 19.7492C16.5785 19.7492 17.8234 19.1792 18.6924 18.1732C19.5534 17.1762 19.9204 15.8732 19.6984 14.6002ZM17.5555 17.1932C16.9545 17.8882 16.0804 18.2592 15.1774 18.2492C7.85342 18.0512 1.96142 12.1582 1.76342 4.83322C1.73942 3.91422 2.12543 3.04225 2.82543 2.44125C3.35443 1.98725 3.98542 1.74923 4.64342 1.74923C4.80743 1.74923 4.97346 1.76418 5.13946 1.79318C5.25546 1.81418 5.35442 1.83925 5.44042 1.86825C5.52342 1.89525 5.58442 1.97223 5.59942 2.06723L6.27044 6.32223C6.28544 6.41523 6.24946 6.50925 6.17846 6.56625C6.12046 6.61325 6.06142 6.65721 6.00042 6.69821C5.26642 7.19721 4.99447 8.10121 5.33947 8.89621C6.46747 11.4922 8.51846 13.5432 11.1135 14.6712C11.9055 15.0152 12.8115 14.7443 13.3165 14.0073C13.3465 13.9643 13.3774 13.9213 13.4114 13.8773C13.4654 13.8083 13.5595 13.7753 13.6545 13.7893L17.9864 14.5102C18.0784 14.5262 18.1554 14.5822 18.1744 14.6472C18.1924 14.7092 18.2074 14.7783 18.2214 14.8573C18.3654 15.6853 18.1225 16.5362 17.5555 17.1932Z" fill="#82D1DA"/>
</svg>
