<svg width="100" height="100" viewBox="0 0 100 100" fill="none" xmlns="http://www.w3.org/2000/svg">
<path d="M90.357 69.167C90.2612 68.6045 90.1447 68.1132 90.0239 67.6757C89.2947 65.0716 87.0278 63.088 84.2487 62.6297L66.1988 59.6257C63.5405 59.1799 60.8779 60.2089 59.2446 62.3006C59.0196 62.5881 58.803 62.8796 58.603 63.1754C58.3071 63.6087 57.7197 64.0131 57.0822 63.7339C47.7197 59.6631 40.328 52.2712 36.2613 42.9087C35.978 42.2629 36.3737 41.6963 36.7987 41.4088C37.1945 41.1421 37.5778 40.8548 37.9487 40.5548C39.9778 38.9131 40.9863 36.288 40.578 33.7005L37.7821 15.9713C37.3529 13.2547 35.4906 11.0337 32.9156 10.1837C32.3114 9.98367 31.6114 9.80054 30.7989 9.6547C25.5239 8.71304 20.1279 10.2045 15.9821 13.7629C11.6363 17.4962 9.22792 22.9215 9.38625 28.6382C10.2988 62.4798 37.5154 89.7008 71.357 90.6133C71.5279 90.6174 71.6989 90.6214 71.8697 90.6214C77.3572 90.6214 82.5446 88.2462 86.1654 84.0545C89.7529 79.9004 91.282 74.4712 90.357 69.167ZM81.4281 79.9713C78.9239 82.8671 75.282 84.4131 71.5195 84.3714C41.0029 83.5464 16.4529 58.9922 15.6279 28.4713C15.5279 24.6422 17.1362 21.009 20.0529 18.5048C22.2571 16.6131 24.8862 15.6214 27.6279 15.6214C28.3112 15.6214 29.003 15.6837 29.6947 15.8045C30.178 15.892 30.5904 15.9965 30.9487 16.1173C31.2945 16.2298 31.5487 16.5505 31.6112 16.9464L34.4071 34.6756C34.4696 35.0631 34.3197 35.4548 34.0239 35.6923C33.7822 35.8881 33.5362 36.0713 33.282 36.2421C30.2237 38.3213 29.0906 42.0879 30.5281 45.4004C35.2281 56.2171 43.7738 64.7631 54.5863 69.4631C57.8863 70.8964 61.6614 69.7675 63.7655 66.6966C63.8905 66.5175 64.0196 66.3383 64.1612 66.1549C64.3862 65.8674 64.7781 65.7299 65.1739 65.7882L83.2238 68.7922C83.6071 68.8588 83.9279 69.092 84.0071 69.3629C84.0821 69.6212 84.1446 69.909 84.2029 70.2382C84.8029 73.6882 83.7906 77.2338 81.4281 79.9713Z" fill="#82D1DA"/>
</svg>
