<svg width="16" height="16" viewBox="0 0 16 16" fill="none" xmlns="http://www.w3.org/2000/svg">
<path d="M15.2186 15.9999C15.3731 15.9999 15.5242 15.9541 15.6527 15.8683C15.7812 15.7824 15.8814 15.6604 15.9405 15.5176C15.9997 15.3749 16.0151 15.2178 15.985 15.0662C15.9548 14.9146 15.8804 14.7754 15.7711 14.6661L1.33361 0.228639C1.18707 0.0821073 0.988334 -0.000213623 0.781106 -0.000213623C0.573878 -0.000213623 0.375138 0.0821073 0.228606 0.228639C0.0820742 0.375171 -0.000247955 0.573912 -0.000247955 0.781139C-0.000247955 0.988367 0.0820742 1.18711 0.228606 1.33364L14.6661 15.7711C14.7386 15.8438 14.8247 15.9014 14.9195 15.9406C15.0143 15.9799 15.116 16 15.2186 15.9999Z" fill="black"/>
<path d="M0.781149 15.9999C0.883769 16 0.985405 15.9799 1.08022 15.9406C1.17504 15.9014 1.26116 15.8438 1.33365 15.7711L15.7711 1.33364C15.9177 1.18711 16 0.988367 16 0.781139C16 0.573912 15.9177 0.375171 15.7711 0.228639C15.6246 0.0821073 15.4259 -0.000213623 15.2186 -0.000213623C15.0114 -0.000213623 14.8127 0.0821073 14.6661 0.228639L0.228649 14.6661C0.11936 14.7754 0.0449295 14.9146 0.0147724 15.0662C-0.0153847 15.2178 8.7738e-05 15.3749 0.0592308 15.5176C0.118374 15.6604 0.218531 15.7824 0.347034 15.8683C0.475536 15.9541 0.626611 15.9999 0.781149 15.9999Z" fill="black"/>
</svg>
