<svg width="23" height="23" viewBox="0 0 23 23" fill="none" xmlns="http://www.w3.org/2000/svg">
<path d="M15.543 14.3301C15.2949 14.3301 15.0938 14.5312 15.0938 14.7793V17.8789C15.0938 19.1174 14.0862 20.125 12.8477 20.125H7.99753C7.74952 20.125 7.54849 20.3259 7.54831 20.5739L7.54768 21.467L6.47549 20.3949C6.40608 20.2356 6.24724 20.125 6.06351 20.125H3.14453C1.90604 20.125 0.898438 19.1174 0.898438 17.8789V10.9609C0.898438 9.72244 1.90604 8.71484 3.14453 8.71484H7.68164C7.9297 8.71484 8.13086 8.51373 8.13086 8.26562C8.13086 8.01752 7.9297 7.81641 7.68164 7.81641H3.14453C1.41064 7.81641 0 9.22704 0 10.9609V17.8789C0 19.6128 1.41064 21.0234 3.14453 21.0234H5.83347L7.67845 22.8684C7.76439 22.9544 7.87925 23 7.99618 23C8.054 23 8.11235 22.9888 8.16783 22.9659C8.3357 22.8964 8.44518 22.7327 8.44531 22.5511L8.44639 21.0234H12.8477C14.5816 21.0234 15.9922 19.6128 15.9922 17.8789V14.7793C15.9922 14.5312 15.791 14.3301 15.543 14.3301Z" fill="#82D1DA"/>
<path d="M16.4708 0H15.3339C11.7337 0 8.80469 2.929 8.80469 6.52921C8.80469 10.1294 11.7337 13.0584 15.3339 13.0584H16.4708C17.0327 13.0584 17.5889 12.987 18.128 12.8459L19.8074 14.5245C19.8934 14.6103 20.0082 14.656 20.1251 14.656C20.183 14.656 20.2414 14.6448 20.297 14.6218C20.4648 14.5522 20.5742 14.3884 20.5742 14.2068V11.6078C21.2853 11.0319 21.876 10.3045 22.2905 9.49186C22.7613 8.56889 23 7.57212 23 6.52921C23 2.929 20.071 0 16.4708 0ZM19.8547 11.0299C19.7421 11.1147 19.6758 11.2476 19.6758 11.3887V13.1227L18.5765 12.024C18.491 11.9386 18.3762 11.8925 18.2589 11.8925C18.2149 11.8925 18.1704 11.899 18.127 11.9124C17.5923 12.0767 17.0351 12.16 16.4708 12.16H15.3339C12.229 12.16 9.70312 9.63403 9.70312 6.52921C9.70312 3.42439 12.2291 0.898437 15.3339 0.898437H16.4708C19.5757 0.898437 22.1016 3.42439 22.1016 6.52921C22.1016 8.314 21.2826 9.95446 19.8547 11.0299Z" fill="#82D1DA"/>
<path d="M17.9241 4.9154C17.8593 3.97496 17.1012 3.21686 16.1607 3.15203C15.6275 3.11542 15.1188 3.29524 14.7293 3.6588C14.3453 4.01732 14.125 4.52413 14.125 5.04931C14.125 5.29741 14.3262 5.49853 14.5742 5.49853C14.8223 5.49853 15.0234 5.29741 15.0234 5.04931C15.0234 4.76814 15.1367 4.50755 15.3424 4.3156C15.5479 4.12383 15.8164 4.02891 16.099 4.04841C16.5944 4.08255 16.9937 4.48186 17.0278 4.97721C17.0623 5.4775 16.7341 5.91963 16.2474 6.02852C15.8531 6.11674 15.5777 6.45941 15.5777 6.86177V7.94102C15.5777 8.18912 15.7788 8.39024 16.0269 8.39024C16.275 8.39024 16.4761 8.18912 16.4761 7.94102V6.89767C17.3813 6.67899 17.9885 5.85072 17.9241 4.9154Z" fill="#82D1DA"/>
<path d="M16.3449 9.40036C16.2614 9.3168 16.1455 9.26874 16.0273 9.26874C15.9092 9.26874 15.7933 9.3168 15.7097 9.40036C15.6262 9.48391 15.5781 9.59981 15.5781 9.71796C15.5781 9.83655 15.6262 9.95245 15.7097 10.036C15.7933 10.1196 15.9092 10.1672 16.0273 10.1672C16.1455 10.1672 16.2614 10.1196 16.3449 10.036C16.4285 9.952 16.4766 9.83655 16.4766 9.71796C16.4766 9.59981 16.4285 9.48391 16.3449 9.40036Z" fill="#82D1DA"/>
<path d="M12.3535 13.9258H2.875C2.62694 13.9258 2.42578 14.1269 2.42578 14.375C2.42578 14.6231 2.62694 14.8242 2.875 14.8242H12.3535C12.6016 14.8242 12.8027 14.6231 12.8027 14.375C12.8027 14.1269 12.6016 13.9258 12.3535 13.9258Z" fill="#82D1DA"/>
<path d="M12.673 16.573C12.5895 16.4895 12.4736 16.4414 12.3555 16.4414C12.2373 16.4414 12.1214 16.4895 12.0379 16.573C11.9543 16.6566 11.9062 16.7725 11.9062 16.8906C11.9062 17.0088 11.9543 17.1247 12.0379 17.2082C12.1214 17.2918 12.2373 17.3398 12.3555 17.3398C12.4736 17.3398 12.5895 17.2918 12.673 17.2082C12.7566 17.1247 12.8047 17.0092 12.8047 16.8906C12.8047 16.7725 12.7566 16.6566 12.673 16.573Z" fill="#82D1DA"/>
<path d="M10.5866 16.4414H2.875C2.62694 16.4414 2.42578 16.6425 2.42578 16.8906C2.42578 17.1387 2.62694 17.3398 2.875 17.3398H10.5866C10.8347 17.3398 11.0358 17.1387 11.0358 16.8906C11.0358 16.6425 10.8347 16.4414 10.5866 16.4414Z" fill="#82D1DA"/>
<path d="M9.43359 11.4102H2.875C2.62694 11.4102 2.42578 11.6113 2.42578 11.8594C2.42578 12.1075 2.62694 12.3086 2.875 12.3086H9.43359C9.6817 12.3086 9.88281 12.1075 9.88281 11.8594C9.88281 11.6113 9.68165 11.4102 9.43359 11.4102Z" fill="#82D1DA"/>
</svg>
