<svg width="22" height="25" viewBox="0 0 22 25" fill="none" xmlns="http://www.w3.org/2000/svg">
<path d="M5.83215 8.93196H14.9927C15.187 8.93196 15.3444 8.77737 15.3444 8.58668C15.3444 8.39599 15.187 8.24139 14.9927 8.24139H5.83215C5.63788 8.24139 5.48047 8.39599 5.48047 8.58668C5.48047 8.77737 5.63793 8.93196 5.83215 8.93196Z" fill="#82D1DA"/>
<path d="M5.8321 10.9634H9.096C9.29027 10.9634 9.44768 10.8088 9.44768 10.6181C9.44768 10.4274 9.29027 10.2728 9.096 10.2728H5.83215C5.63788 10.2728 5.48047 10.4274 5.48047 10.6181C5.48047 10.8088 5.63788 10.9634 5.8321 10.9634Z" fill="#82D1DA"/>
<path d="M5.83215 17.0578H11.0655C11.2597 17.0578 11.4171 16.9032 11.4171 16.7125C11.4171 16.5218 11.2597 16.3672 11.0655 16.3672H5.83215C5.63788 16.3672 5.48047 16.5218 5.48047 16.7125C5.48047 16.9032 5.63793 17.0578 5.83215 17.0578Z" fill="#82D1DA"/>
<path d="M7.59778 6.30794H13.2293C13.4236 6.30794 13.581 6.15334 13.581 5.96266C13.581 5.77197 13.4236 5.61737 13.2293 5.61737H7.59778C7.40351 5.61737 7.24609 5.77197 7.24609 5.96266C7.24609 6.15334 7.40355 6.30794 7.59778 6.30794Z" fill="#82D1DA"/>
<path d="M20.6899 16.1325L20.0931 16.7184V16.6342C20.0931 16.3169 19.8302 16.0587 19.507 16.0587H18.8125V15.3553H19.507C19.8302 15.3553 20.0931 15.0971 20.0931 14.7798V14.2128C20.0931 14.0221 19.9357 13.8675 19.7414 13.8675C19.5472 13.8675 19.3897 14.0221 19.3897 14.2128V14.6647H14.9149V10.2712H19.3897V10.931L17.4586 12.827L16.1938 11.5853C16.0564 11.4504 15.8338 11.4504 15.6964 11.5853C15.5591 11.7201 15.5591 11.9387 15.6964 12.0735L17.2099 13.5595C17.2786 13.627 17.3686 13.6607 17.4586 13.6607C17.5486 13.6607 17.6386 13.627 17.7073 13.5595L19.3898 11.9077V12.6015C19.3898 12.7921 19.5472 12.9467 19.7415 12.9467C19.9357 12.9467 20.0932 12.7921 20.0932 12.6015V11.2171L21.1873 10.1428C21.3247 10.008 21.3247 9.78932 21.1873 9.65452C21.0499 9.51968 20.8273 9.51968 20.6899 9.65452L20.0932 10.2404V10.1562C20.0932 9.83886 19.8302 9.58072 19.507 9.58072H18.8125V3.09412C18.8125 2.82756 18.5917 2.61072 18.3202 2.61072H16.7967V1.11499C16.7967 0.848431 16.5759 0.631592 16.3044 0.631592H0.492355C0.220856 0.631592 0 0.848431 0 1.11499V21.7405C0 22.0071 0.220856 22.2239 0.492355 22.2239H2.0158V23.7196C2.0158 23.9862 2.23665 24.203 2.50815 24.203H18.3201C18.5916 24.203 18.8125 23.9862 18.8125 23.7196V21.8333H19.507C19.8302 21.8333 20.0931 21.5752 20.0931 21.2578V17.6951L21.1873 16.6208C21.3246 16.486 21.3246 16.2673 21.1873 16.1325C21.0499 15.9977 20.8272 15.9977 20.6899 16.1325ZM19.3897 17.409L17.4585 19.305L16.1938 18.0633C16.0564 17.9284 15.8337 17.9284 15.6964 18.0633C15.559 18.1981 15.559 18.4167 15.6964 18.5515L17.2099 20.0375C17.2786 20.105 17.3686 20.1387 17.4586 20.1387C17.5486 20.1387 17.6386 20.105 17.7073 20.0375L19.3898 18.3857V21.1428H17.9601C17.7659 21.1428 17.6085 21.2974 17.6085 21.4881C17.6085 21.6788 17.7659 21.8334 17.9601 21.8334H18.1092V23.5125H2.71921V3.30129H5.95605C6.15031 3.30129 6.30773 3.14669 6.30773 2.956C6.30773 2.76531 6.15031 2.61072 5.95605 2.61072H2.5082C2.2367 2.61072 2.01584 2.82756 2.01584 3.09412V21.5333H0.703365V1.32216H16.0933V2.61072H7.59723C7.40296 2.61072 7.24555 2.76531 7.24555 2.956C7.24555 3.14669 7.40296 3.30129 7.59723 3.30129H18.1092V9.58068H14.7977C14.4745 9.58068 14.2116 9.83881 14.2116 10.1562V10.2728H10.4107C10.2164 10.2728 10.059 10.4274 10.059 10.6181C10.059 10.8088 10.2164 10.9634 10.4107 10.9634H14.2116V12.3042H5.83385C5.63958 12.3042 5.48216 12.4588 5.48216 12.6495C5.48216 12.8402 5.63958 12.9948 5.83385 12.9948H14.2115V14.3357H5.83385C5.63958 14.3357 5.48216 14.4903 5.48216 14.6809C5.48216 14.8716 5.63958 15.0262 5.83385 15.0262H14.2688C14.3631 15.2204 14.5644 15.3552 14.7977 15.3552H18.1091V16.0587H14.7977C14.5726 16.0587 14.3771 16.184 14.2789 16.3671H12.3801C12.1858 16.3671 12.0284 16.5217 12.0284 16.7124C12.0284 16.9031 12.1858 17.0577 12.3801 17.0577H14.2116V18.3986H5.83385C5.63958 18.3986 5.48216 18.5532 5.48216 18.7438C5.48216 18.9345 5.63958 19.0891 5.83385 19.0891H14.2115V20.43H5.83385C5.63958 20.43 5.48216 20.5846 5.48216 20.7753C5.48216 20.966 5.63958 21.1206 5.83385 21.1206H14.2115V21.2577C14.2115 21.5751 14.4745 21.8332 14.7977 21.8332H16.319C16.5132 21.8332 16.6706 21.6786 16.6706 21.4879C16.6706 21.2972 16.5132 21.1426 16.319 21.1426H14.9149V16.7492H19.3898V17.409H19.3897Z" fill="#82D1DA"/>
</svg>
