<svg width="100" height="100" viewBox="0 0 100 100" fill="none" xmlns="http://www.w3.org/2000/svg">
<g clip-path="url(#clip0_1471_3103)">
<path d="M63.5521 55.3249L54.1396 50.9791C48.4188 48.3353 41.1855 51.1333 35.9605 57.3353L27.7459 52.8458C25.923 51.9978 23.3563 53.5499 22.1375 56.1791C21.546 57.3969 21.332 58.7638 21.523 60.1041C21.5734 60.6147 21.7463 61.1055 22.027 61.535C22.3078 61.9644 22.688 62.3197 23.1355 62.5708L30.7417 66.7374C27.5938 76.2333 29.9563 85.7312 36.6625 88.8208L46.073 93.1645C47.5481 93.8427 49.1536 94.1904 50.7771 94.1833C53.4834 94.1206 56.1227 93.3288 58.4167 91.8916C62.7747 89.1508 66.2114 85.1669 68.2834 80.4541C73.1021 70.0354 70.9792 58.7499 63.5521 55.3249ZM24.6855 59.8687C24.6464 59.7774 24.6191 59.6815 24.6042 59.5833C24.5256 58.8679 24.6535 58.1449 24.973 57.4999C25.2656 56.7425 25.8271 56.1195 26.55 55.7499L34.0625 59.8603C33.2565 61.0786 32.5434 62.3558 31.9292 63.6812C31.9125 63.7208 31.898 63.7604 31.8792 63.7999L24.6855 59.8687ZM34.7667 64.9999C38.8625 56.1312 46.9625 51.1187 52.8313 53.8228L55.1375 54.8895C53.761 55.2917 52.4408 55.8664 51.2084 56.5999C46.8505 59.3399 43.4137 63.3231 41.3417 68.0354C39.0991 72.6697 38.2952 77.8693 39.0334 82.9645C39.2764 84.3775 39.6964 85.7543 40.2834 87.0624L37.9917 85.9999C32.1105 83.2833 30.6709 73.8624 34.7667 64.9999ZM65.448 79.1666C63.6398 83.3041 60.6363 86.8068 56.823 89.2249C55.4631 90.1738 53.8899 90.7722 52.2432 90.967C50.5965 91.1618 48.9271 90.947 47.3834 90.3416C45.9215 89.5575 44.6757 88.4247 43.7567 87.0437C42.8376 85.6627 42.2735 84.0762 42.1146 82.4249C41.4813 77.9537 42.1995 73.3952 44.1771 69.3353C45.9842 65.1971 48.988 61.6942 52.8021 59.277C54.6149 58.1332 56.7013 57.4964 58.8438 57.4333C60.0129 57.4263 61.1695 57.6736 62.2334 58.1583C68.1042 60.8687 69.5438 70.2895 65.448 79.1666Z" fill="black"/>
<path d="M25.9584 73.9685C24.7446 74.5935 23.4089 74.9459 22.0447 75.0009C20.6805 75.056 19.3207 74.8124 18.0605 74.2873C14.6688 72.7206 12.6042 68.7143 12.5396 63.5685C12.5342 63.1577 12.3671 62.7656 12.0747 62.4771C11.7823 62.1886 11.388 62.0268 10.9771 62.0268H10.9563C10.7511 62.0296 10.5485 62.0727 10.3599 62.1537C10.1714 62.2348 10.0007 62.3521 9.85751 62.4992C9.71435 62.6462 9.60156 62.82 9.52557 63.0106C9.44958 63.2012 9.41189 63.405 9.41464 63.6102C9.42012 66.1606 9.95353 68.6823 10.9813 71.0164L8.64797 69.9414C7.18606 69.1571 5.94018 68.0243 5.02077 66.6434C4.10136 65.2625 3.5368 63.6761 3.37714 62.0248C2.74545 57.5533 3.4644 52.9951 5.44172 48.9352C7.24943 44.7974 10.2531 41.2946 14.0667 38.8768C15.427 37.9297 16.9995 37.3321 18.6455 37.137C20.2915 36.9419 21.9602 37.1552 23.5042 37.7581C23.5354 37.7737 23.5674 37.7876 23.6001 37.7998L25.8646 38.8414C22.7696 39.944 19.9391 41.6811 17.5544 43.9413C15.1697 46.2014 13.2835 48.9349 12.0167 51.9664C11.1064 53.926 10.4201 55.9821 9.97089 58.0956C9.88509 58.5009 9.96373 58.9236 10.1895 59.2709C10.4153 59.6182 10.7698 59.8617 11.1751 59.9477C11.2827 59.97 11.3923 59.9812 11.5021 59.981C11.8599 59.9805 12.2067 59.8571 12.4843 59.6314C12.7619 59.4058 12.9536 59.0916 13.0271 58.7414C13.4289 56.8573 14.0411 55.0243 14.8521 53.2768C18.948 44.4102 27.0501 39.3852 32.9167 42.1018C34.4426 42.9285 35.7333 44.1295 36.6677 45.5919C37.6021 47.0543 38.1495 48.7302 38.2584 50.4623C38.2877 50.6654 38.3567 50.8608 38.4614 51.0372C38.5662 51.2137 38.7047 51.3678 38.8691 51.4908C39.0334 51.6137 39.2204 51.7031 39.4193 51.7538C39.6181 51.8045 39.825 51.8155 40.0282 51.7862C40.2313 51.7569 40.4267 51.6879 40.6032 51.5832C40.7797 51.4784 40.9338 51.3399 41.0567 51.1755C41.1796 51.0112 41.269 50.8242 41.3197 50.6254C41.3704 50.4265 41.3814 50.2196 41.3521 50.0164C41.1646 47.7696 40.4134 45.6064 39.168 43.727C37.9226 41.8476 36.2232 40.3127 34.2271 39.2643L24.8188 34.9164C24.7849 34.9001 24.7501 34.8855 24.7146 34.8727C22.7224 34.0738 20.5646 33.7757 18.4304 34.0045C16.2961 34.2333 14.2506 34.9821 12.473 36.1852C8.11557 38.9257 4.67899 42.9087 2.60631 47.6206C-2.21244 58.0685 -0.0916094 69.3498 7.33756 72.781L16.7501 77.1248C18.2203 77.7962 19.8192 78.1389 21.4355 78.1289C23.4391 78.1056 25.4153 77.6606 27.2355 76.8227C27.614 76.6533 27.9097 76.3406 28.0576 75.9532C28.2054 75.5658 28.1934 75.1355 28.024 74.757C27.8547 74.3786 27.5419 74.0828 27.1545 73.935C26.7671 73.7871 26.3369 73.7992 25.9584 73.9685Z" fill="black"/>
<path d="M73.4562 63.6707C73.0418 63.6756 72.6463 63.845 72.3568 64.1416C72.0673 64.4381 71.9075 64.8375 71.9125 65.2519C71.9174 65.6663 72.0868 66.0618 72.3834 66.3513C72.6799 66.6408 73.0793 66.8006 73.4937 66.7957H73.5416C75.5781 66.7448 77.5635 66.1473 79.2899 65.0657C81.0163 63.9842 82.4201 62.4585 83.3545 60.6482C84.2888 58.838 84.7193 56.8098 84.6009 54.7761C84.4825 52.7424 83.8194 50.7779 82.6813 49.0884C81.5431 47.3988 79.9716 46.0464 78.1314 45.1726C76.2911 44.2988 74.2498 43.9358 72.2211 44.1216C70.1925 44.3074 68.2511 45.0352 66.6002 46.2288C64.9494 47.4224 63.6497 49.0379 62.8375 50.9061C62.6717 51.286 62.6636 51.7161 62.815 52.1019C62.9664 52.4878 63.2649 52.7976 63.6447 52.9634C64.0246 53.1291 64.4548 53.1372 64.8406 52.9858C65.2264 52.8344 65.5363 52.536 65.702 52.1561C66.2908 50.8017 67.2328 49.6305 68.4295 48.765C69.6262 47.8996 71.0335 47.3718 72.5042 47.2369C73.9749 47.102 75.4547 47.3649 76.7889 47.9982C78.1231 48.6315 79.2625 49.6118 80.0878 50.8365C80.9131 52.0612 81.394 53.4852 81.4802 54.9595C81.5663 56.4339 81.2545 57.9042 80.5774 59.2167C79.9003 60.5292 78.8828 61.6355 77.6315 62.4198C76.3801 63.2041 74.9409 63.6376 73.4645 63.6748L73.4562 63.6707Z" fill="black"/>
<path d="M97.3519 13.5603C95.8391 11.181 93.749 9.223 91.276 7.86868C88.8031 6.51435 86.0277 5.8077 83.2081 5.8145H63.4686C60.6506 5.81497 57.8781 6.52497 55.4068 7.87902C52.9355 9.23308 50.8449 11.1876 49.3278 13.5623C47.8107 15.9371 46.916 18.6556 46.7261 21.4671C46.5363 24.2787 47.0574 27.0928 48.2415 29.6499L53.5102 41.0228C52.3123 42.6646 51.3222 44.4483 50.5623 46.3333C50.4181 46.7158 50.4296 47.1395 50.5942 47.5137C50.7589 47.8878 51.0636 48.1826 51.443 48.3347C51.8224 48.4868 52.2464 48.4841 52.6239 48.3273C53.0014 48.1705 53.3024 47.8719 53.4623 47.4958C54.2128 45.6296 55.2213 43.8778 56.4581 42.2916C56.4753 42.2717 56.4913 42.2508 56.5061 42.2291C57.8887 40.466 59.5427 38.9337 61.4061 37.6895C61.4186 37.6895 61.4248 37.6728 61.4373 37.6687C63.8121 36.1028 66.4762 35.0279 69.2728 34.5073C72.0693 33.9866 74.9418 34.0307 77.721 34.637C80.5002 35.2432 83.1301 36.3994 85.4557 38.0374C87.7814 39.6754 89.7558 41.7622 91.2627 44.1748C92.7697 46.5875 93.7787 49.2772 94.2304 52.0857C94.6821 54.8942 94.5674 57.7647 93.8929 60.5282C93.2185 63.2916 91.998 65.8923 90.3032 68.1769C88.6085 70.4615 86.4738 72.384 84.0248 73.8312H73.3331C72.9187 73.8312 72.5213 73.9958 72.2283 74.2888C71.9353 74.5818 71.7706 74.9793 71.7706 75.3937C71.7706 75.8081 71.9353 76.2055 72.2283 76.4985C72.5213 76.7915 72.9187 76.9562 73.3331 76.9562H84.4352C84.7038 76.9539 84.9672 76.8821 85.1998 76.7478C88.2017 75.0714 90.8149 72.7789 92.8679 70.0208C94.9208 67.2627 96.3671 64.1015 97.1116 60.7448C97.8561 57.3881 97.8821 53.9119 97.1878 50.5445C96.4935 47.1771 95.0947 43.9946 93.0831 41.2062L98.4373 29.6478C99.6278 27.0924 100.153 24.2773 99.9627 21.4646C99.773 18.6518 98.8748 15.9327 97.3519 13.5603ZM95.6019 28.3353L90.8727 38.5437C89.9317 37.5673 88.9116 36.6705 87.8227 35.8624L92.0665 26.6958C92.7555 25.2085 93.0588 23.5717 92.9484 21.9363C92.838 20.3009 92.3174 18.7197 91.4347 17.3386C90.552 15.9575 89.3356 14.8209 87.8979 14.0339C86.4601 13.2469 84.8472 12.8347 83.2081 12.8353H81.2498C80.8354 12.8353 80.438 13 80.1449 13.293C79.8519 13.586 79.6873 13.9834 79.6873 14.3978C79.6873 14.8122 79.8519 15.2097 80.1449 15.5027C80.438 15.7957 80.8354 15.9603 81.2498 15.9603H83.2019C84.3166 15.9594 85.4136 16.2394 86.3915 16.7745C87.3695 17.3095 88.1968 18.0824 88.797 19.0218C89.3973 19.9611 89.7512 21.0365 89.8259 22.1488C89.9007 23.261 89.6939 24.3741 89.2248 25.3853L85.1831 34.1249C81.5637 32.092 77.4857 31.0154 73.3344 30.9968C69.1831 30.9782 65.0957 32.0182 61.4581 34.0187L57.4581 25.3853C56.9891 24.3743 56.7823 23.2613 56.857 22.1493C56.9317 21.0372 57.2853 19.9619 57.8853 19.0226C58.4854 18.0834 59.3124 17.3104 60.29 16.7752C61.2677 16.24 62.3644 15.9597 63.479 15.9603H76.5852C76.9996 15.9603 77.397 15.7957 77.6901 15.5027C77.9831 15.2097 78.1477 14.8122 78.1477 14.3978C78.1477 13.9834 77.9831 13.586 77.6901 13.293C77.397 13 76.9996 12.8353 76.5852 12.8353H63.4686C61.8295 12.8358 60.2169 13.2489 58.7795 14.0366C57.3421 14.8243 56.1262 15.9612 55.2439 17.3425C54.3615 18.7238 53.8412 20.3051 53.7308 21.9404C53.6204 23.5758 53.9236 25.2126 54.6123 26.6999L58.7915 35.7187C57.6989 36.5185 56.6751 37.4084 55.7311 38.3791L51.079 28.3333C50.1142 26.2525 49.689 23.9622 49.8429 21.6738C49.9967 19.3854 50.7244 17.1727 51.959 15.2397C53.1936 13.3068 54.8952 11.716 56.9067 10.6142C58.9183 9.51233 61.175 8.93495 63.4686 8.93534H83.2081C85.5016 8.93497 87.7582 9.5122 89.7697 10.6138C91.7813 11.7154 93.483 13.3058 94.7179 15.2384C95.9528 17.171 96.6811 19.3834 96.8356 21.6716C96.9901 23.9599 96.5658 26.2501 95.6019 28.3312V28.3353Z" fill="black"/>
</g>
<defs>
<clipPath id="clip0_1471_3103">
<rect width="100" height="100" fill="white"/>
</clipPath>
</defs>
</svg>
