<svg width="62" height="24" viewBox="0 0 62 24" fill="none" xmlns="http://www.w3.org/2000/svg">
<path d="M12 22C17.5228 22 22 17.5228 22 12C22 6.47715 17.5228 2 12 2C6.47715 2 2 6.47715 2 12C2 17.5228 6.47715 22 12 22Z" stroke="#20206A" stroke-width="2" stroke-linecap="round" stroke-linejoin="round"/>
<path d="M10 8L16 12L10 16V8Z" stroke="#20206A" stroke-width="2" stroke-linecap="round" stroke-linejoin="round"/>
<path d="M30.75 7.80469V17.5H28.6406V7.80469H30.75ZM29.0703 5.57812C29.0703 5.41146 29.1328 5.26562 29.2578 5.14062C29.3828 5.01562 29.5286 4.95312 29.6953 4.95312C29.862 4.95312 30.0078 5.01562 30.1328 5.14062C30.2578 5.26562 30.3203 5.41146 30.3203 5.57812C30.3203 5.74479 30.2578 5.89062 30.1328 6.01562C30.013 6.14062 29.8672 6.20312 29.6953 6.20312C29.5182 6.20312 29.3698 6.14062 29.25 6.01562C29.1302 5.89062 29.0703 5.74479 29.0703 5.57812ZM35.2969 14.6719L34.8125 17.5H32.625L33.2812 14.2656C33.4688 13.3698 33.6406 12.7318 33.7969 12.3516C33.9531 11.9661 34.1458 11.6615 34.375 11.4375C34.6094 11.2083 34.9323 11.0052 35.3438 10.8281L33.0859 7.80469H35.6484L38.8125 12.1875C39.1406 11.8906 39.3906 11.5417 39.5625 11.1406C39.7344 10.7396 39.8568 10.1979 39.9297 9.51562L40.0938 7.80469H42.25L42.0625 9.65625C42.0052 10.1823 41.901 10.6484 41.75 11.0547C41.6458 11.3307 41.5182 11.5911 41.3672 11.8359C41.2161 12.0755 41.0182 12.3307 40.7734 12.6016C40.5339 12.8672 40.2161 13.1771 39.8203 13.5312L42.7344 17.5H40.1875L36.2891 12.0938C36.013 12.2552 35.8151 12.4896 35.6953 12.7969C35.638 12.9531 35.5755 13.1875 35.5078 13.5C35.4401 13.8125 35.3698 14.2031 35.2969 14.6719ZM47.9922 19.5938C47.9922 19.4167 48.0547 19.2682 48.1797 19.1484C48.3047 19.0286 48.4505 18.9688 48.6172 18.9688C48.7839 18.9688 48.9297 19.0312 49.0547 19.1562C49.1797 19.2812 49.2422 19.4271 49.2422 19.5938C49.2422 19.7604 49.1823 19.9062 49.0625 20.0312C48.9375 20.1562 48.7891 20.2188 48.6172 20.2188C48.4401 20.2188 48.2917 20.1589 48.1719 20.0391C48.0521 19.9193 47.9922 19.7708 47.9922 19.5938ZM49.8047 19.5938C49.8047 19.4271 49.8646 19.2812 49.9844 19.1562C50.1042 19.0312 50.2474 18.9688 50.4141 18.9688C50.5859 18.9688 50.7318 19.0286 50.8516 19.1484C50.9766 19.2734 51.0391 19.4219 51.0391 19.5938C51.0391 19.7708 50.9792 19.9193 50.8594 20.0391C50.7396 20.1589 50.5911 20.2188 50.4141 20.2188C50.2474 20.2188 50.1042 20.1589 49.9844 20.0391C49.8646 19.9193 49.8047 19.7708 49.8047 19.5938ZM50.7109 9.69531V17.5H48.6016V9.69531H43.3516V7.80469H51.9141V9.69531H50.7109ZM55.8125 7.80469V12.9531H53.7031V7.80469H55.8125ZM58.9688 19.6094C58.9688 19.4375 59.0312 19.2891 59.1562 19.1641C59.276 19.0443 59.4219 18.9844 59.5938 18.9844C59.7708 18.9844 59.9193 19.0469 60.0391 19.1719C60.1589 19.2969 60.2188 19.4427 60.2188 19.6094C60.2188 19.776 60.1562 19.9193 60.0312 20.0391C59.9062 20.1589 59.7604 20.2188 59.5938 20.2188C59.4271 20.2188 59.2812 20.1589 59.1562 20.0391C59.0312 19.9193 58.9688 19.776 58.9688 19.6094ZM60.6406 7.80469V17.5H58.5312V7.80469H60.6406Z" fill="#20206A"/>
</svg>
