<svg width="35" height="46" viewBox="0 0 35 46" fill="none" xmlns="http://www.w3.org/2000/svg">
<path d="M3.75 5.30469V15H1.64062V5.30469H3.75ZM2.07031 3.07812C2.07031 2.91146 2.13281 2.76562 2.25781 2.64062C2.38281 2.51562 2.52865 2.45312 2.69531 2.45312C2.86198 2.45312 3.00781 2.51562 3.13281 2.64062C3.25781 2.76562 3.32031 2.91146 3.32031 3.07812C3.32031 3.24479 3.25781 3.39062 3.13281 3.51562C3.01302 3.64062 2.86719 3.70312 2.69531 3.70312C2.51823 3.70312 2.36979 3.64062 2.25 3.51562C2.13021 3.39062 2.07031 3.24479 2.07031 3.07812ZM8.29688 12.1719L7.8125 15H5.625L6.28125 11.7656C6.46875 10.8698 6.64062 10.2318 6.79688 9.85156C6.95312 9.46615 7.14583 9.16146 7.375 8.9375C7.60938 8.70833 7.93229 8.50521 8.34375 8.32812L6.08594 5.30469H8.64844L11.8125 9.6875C12.1406 9.39062 12.3906 9.04167 12.5625 8.64062C12.7344 8.23958 12.8568 7.69792 12.9297 7.01562L13.0938 5.30469H15.25L15.0625 7.15625C15.0052 7.68229 14.901 8.14844 14.75 8.55469C14.6458 8.83073 14.5182 9.09115 14.3672 9.33594C14.2161 9.57552 14.0182 9.83073 13.7734 10.1016C13.5339 10.3672 13.2161 10.6771 12.8203 11.0312L15.7344 15H13.1875L9.28906 9.59375C9.01302 9.75521 8.8151 9.98958 8.69531 10.2969C8.63802 10.4531 8.57552 10.6875 8.50781 11C8.4401 11.3125 8.36979 11.7031 8.29688 12.1719ZM20.9922 17.0938C20.9922 16.9167 21.0547 16.7682 21.1797 16.6484C21.3047 16.5286 21.4505 16.4688 21.6172 16.4688C21.7839 16.4688 21.9297 16.5312 22.0547 16.6562C22.1797 16.7812 22.2422 16.9271 22.2422 17.0938C22.2422 17.2604 22.1823 17.4062 22.0625 17.5312C21.9375 17.6562 21.7891 17.7188 21.6172 17.7188C21.4401 17.7188 21.2917 17.6589 21.1719 17.5391C21.0521 17.4193 20.9922 17.2708 20.9922 17.0938ZM22.8047 17.0938C22.8047 16.9271 22.8646 16.7812 22.9844 16.6562C23.1042 16.5312 23.2474 16.4688 23.4141 16.4688C23.5859 16.4688 23.7318 16.5286 23.8516 16.6484C23.9766 16.7734 24.0391 16.9219 24.0391 17.0938C24.0391 17.2708 23.9792 17.4193 23.8594 17.5391C23.7396 17.6589 23.5911 17.7188 23.4141 17.7188C23.2474 17.7188 23.1042 17.6589 22.9844 17.5391C22.8646 17.4193 22.8047 17.2708 22.8047 17.0938ZM23.7109 7.19531V15H21.6016V7.19531H16.3516V5.30469H24.9141V7.19531H23.7109ZM28.8125 5.30469V10.4531H26.7031V5.30469H28.8125ZM31.9688 17.1094C31.9688 16.9375 32.0312 16.7891 32.1562 16.6641C32.276 16.5443 32.4219 16.4844 32.5938 16.4844C32.7708 16.4844 32.9193 16.5469 33.0391 16.6719C33.1589 16.7969 33.2188 16.9427 33.2188 17.1094C33.2188 17.276 33.1562 17.4193 33.0312 17.5391C32.9062 17.6589 32.7604 17.7188 32.5938 17.7188C32.4271 17.7188 32.2812 17.6589 32.1562 17.5391C32.0312 17.4193 31.9688 17.276 31.9688 17.1094ZM33.6406 5.30469V15H31.5312V5.30469H33.6406Z" fill="#20206A"/>
<path d="M17 44C22.5228 44 27 39.5228 27 34C27 28.4772 22.5228 24 17 24C11.4772 24 7 28.4772 7 34C7 39.5228 11.4772 44 17 44Z" stroke="#20206A" stroke-width="2" stroke-linecap="round" stroke-linejoin="round"/>
<path d="M15 30L21 34L15 38V30Z" stroke="#20206A" stroke-width="2" stroke-linecap="round" stroke-linejoin="round"/>
</svg>
