<svg width="42" height="42" viewBox="0 0 42 42" fill="none" xmlns="http://www.w3.org/2000/svg">
<path fill-rule="evenodd" clip-rule="evenodd" d="M9.65406 4.68635C9.84252 4.40367 10.1598 4.23387 10.4995 4.23387H31.4995C31.8393 4.23387 32.1565 4.40367 32.345 4.68635L39.345 15.1864C39.5865 15.5486 39.5704 16.0245 39.3049 16.3695L21.8049 39.1195C21.6126 39.3696 21.315 39.5161 20.9995 39.5161C20.6841 39.5161 20.3865 39.3696 20.1941 39.1195L2.69412 16.3695C2.42867 16.0245 2.41256 15.5486 2.65406 15.1864L9.65406 4.68635ZM11.0433 6.26613L4.74897 15.7077L20.9995 36.8334L37.2501 15.7077L30.9557 6.26613H11.0433Z" fill="#20206A"/>
<path fill-rule="evenodd" clip-rule="evenodd" d="M22.2954 4.34114C22.7973 4.09017 23.4077 4.29362 23.6587 4.79557L28.9087 15.2956C29.0255 15.5293 29.0478 15.7991 28.971 16.0488L21.971 38.7988C21.806 39.3352 21.2373 39.6362 20.701 39.4712C20.1646 39.3061 19.8636 38.7375 20.0286 38.2012L26.9089 15.8403L21.8409 5.70442C21.59 5.20247 21.7934 4.59211 22.2954 4.34114Z" fill="#20206A"/>
<path fill-rule="evenodd" clip-rule="evenodd" d="M19.704 4.34114C20.2059 4.59211 20.4094 5.20247 20.1584 5.70442L15.0905 15.8403L21.9707 38.2012C22.1358 38.7375 21.8347 39.3061 21.2984 39.4712C20.762 39.6362 20.1934 39.3352 20.0283 38.7988L13.0283 16.0488C12.9515 15.7991 12.9738 15.5293 13.0907 15.2956L18.3407 4.79557C18.5916 4.29362 19.202 4.09017 19.704 4.34114Z" fill="#20206A"/>
<path fill-rule="evenodd" clip-rule="evenodd" d="M2.4834 15.75C2.4834 15.1888 2.93833 14.7339 3.49953 14.7339H38.4995C39.0607 14.7339 39.5157 15.1888 39.5157 15.75C39.5157 16.3112 39.0607 16.7661 38.4995 16.7661H3.49953C2.93833 16.7661 2.4834 16.3112 2.4834 15.75Z" fill="#20206A"/>
</svg>
