<svg width="229" height="60" viewBox="0 0 229 60" fill="none" xmlns="http://www.w3.org/2000/svg">
<path fill-rule="evenodd" clip-rule="evenodd" d="M196.654 13.6864C196.843 13.4037 197.16 13.2339 197.5 13.2339H218.5C218.839 13.2339 219.157 13.4037 219.345 13.6864L226.345 24.1864C226.587 24.5486 226.57 25.0245 226.305 25.3695L208.805 48.1195C208.613 48.3696 208.315 48.5161 208 48.5161C207.684 48.5161 207.386 48.3696 207.194 48.1195L189.694 25.3695C189.429 25.0245 189.413 24.5486 189.654 24.1864L196.654 13.6864ZM198.043 15.2661L191.749 24.7077L208 45.8334L224.25 24.7077L217.956 15.2661H198.043Z" fill="#20206A"/>
<path fill-rule="evenodd" clip-rule="evenodd" d="M209.295 13.3411C209.797 13.0902 210.408 13.2936 210.659 13.7956L215.909 24.2956C216.026 24.5293 216.048 24.7991 215.971 25.0488L208.971 47.7988C208.806 48.3352 208.237 48.6362 207.701 48.4712C207.165 48.3061 206.864 47.7375 207.029 47.2012L213.909 24.8403L208.841 14.7044C208.59 14.2025 208.793 13.5921 209.295 13.3411Z" fill="#20206A"/>
<path fill-rule="evenodd" clip-rule="evenodd" d="M206.704 13.3411C207.206 13.5921 207.409 14.2025 207.158 14.7044L202.09 24.8403L208.971 47.2012C209.136 47.7375 208.835 48.3061 208.298 48.4712C207.762 48.6362 207.193 48.3352 207.028 47.7988L200.028 25.0488C199.951 24.7991 199.974 24.5293 200.091 24.2956L205.341 13.7956C205.592 13.2936 206.202 13.0902 206.704 13.3411Z" fill="#20206A"/>
<path fill-rule="evenodd" clip-rule="evenodd" d="M189.483 24.75C189.483 24.1888 189.938 23.7339 190.5 23.7339H225.5C226.061 23.7339 226.516 24.1888 226.516 24.75C226.516 25.3112 226.061 25.7661 225.5 25.7661H190.5C189.938 25.7661 189.483 25.3112 189.483 24.75Z" fill="#20206A"/>
<path d="M3.24238 38C2.09426 38 1.01347 37.9072 0 37.7217V23.398C0.935507 23.2838 2.01984 23.2267 3.25301 23.2267C4.49327 23.2267 5.61304 23.398 6.61233 23.7406C7.61871 24.076 8.45854 24.5577 9.13182 25.1858C10.4926 26.4419 11.1729 28.2011 11.1729 30.4635C11.1729 32.9971 10.4146 34.9204 8.89794 36.2336C7.53721 37.4112 5.65202 38 3.24238 38ZM2.764 35.3879C3.22466 35.4736 3.68533 35.5164 4.146 35.5164C4.60666 35.5164 5.10276 35.4272 5.6343 35.2487C6.16584 35.0632 6.62651 34.7777 7.0163 34.3923C7.85259 33.5787 8.27073 32.394 8.27073 30.8382C8.27073 28.2832 7.34585 26.7131 5.4961 26.1278C4.88661 25.9351 4.18143 25.8388 3.38058 25.8388H3.09355C2.98724 25.8388 2.87739 25.8424 2.764 25.8495V35.3879Z" fill="#20206A"/>
<path d="M13.6924 23.3552C14.2594 22.4631 14.8512 21.678 15.4678 21L17.7534 22.8092C17.4486 23.1874 17.1651 23.5586 16.9029 23.9225C16.9029 23.9225 16.6301 24.3115 16.0843 25.0894L13.6924 23.3552ZM16.4883 36.5334C16.4883 37.1471 16.5025 37.5468 16.5308 37.7324H13.8306V26.5453H16.4883V36.5334Z" fill="#20206A"/>
<path d="M26.832 37.0686C25.8257 37.6182 24.915 37.8929 24.0999 37.8929C23.2849 37.8929 22.5868 37.818 22.0057 37.6681C21.4245 37.5111 20.932 37.2827 20.528 36.983C19.7059 36.3764 19.2948 35.4985 19.2948 34.3495C19.2948 33.3218 19.798 32.4654 20.8044 31.7802C21.8958 31.038 23.377 30.6669 25.2481 30.6669L25.6733 30.6776C25.7583 30.6847 25.854 30.6919 25.9603 30.699C26.0666 30.699 26.1623 30.7061 26.2473 30.7204C26.1906 29.5785 25.7016 28.9112 24.7803 28.7185C24.4755 28.6543 24.1495 28.6222 23.8023 28.6222C23.4621 28.6222 23.1254 28.6543 22.7923 28.7185C22.4663 28.7756 22.1474 28.8541 21.8356 28.954C21.1481 29.1753 20.6556 29.4286 20.3579 29.7141L20.326 29.6927L20.0071 27.3268C21.2615 26.6631 22.6329 26.3312 24.1212 26.3312C26.4316 26.3312 27.9093 27.1698 28.5542 28.847C28.7597 29.3822 28.8625 29.9853 28.8625 30.6562V34.5315C28.8625 35.3594 29.1531 35.9232 29.7342 36.2229L27.8101 38C27.4061 37.7859 27.0801 37.4754 26.832 37.0686ZM26.258 32.6474C26.0666 32.6117 25.8682 32.5938 25.6627 32.5938H25.2374C23.6712 32.5938 22.6754 32.9435 22.2502 33.6429C22.1226 33.8499 22.0588 34.0676 22.0588 34.296C22.0588 34.5243 22.0978 34.7277 22.1758 34.9062C22.2608 35.0775 22.399 35.2202 22.5904 35.3344C22.9589 35.5485 23.5046 35.6555 24.2275 35.6555C24.9575 35.6555 25.6378 35.4807 26.2686 35.131C26.2615 35.0525 26.258 34.9704 26.258 34.8848V32.6474Z" fill="#20206A"/>
<path d="M35.0602 34.6385C35.0602 36.2443 35.0886 37.2756 35.1453 37.7324H32.3707V26.5453H35.0602V27.5088C36.0312 26.7238 37.0269 26.3312 38.0475 26.3312C39.2523 26.3312 40.1276 26.8558 40.6733 27.9049C41.219 27.3411 41.6726 26.97 42.034 26.7916C42.6364 26.4847 43.2388 26.3312 43.8412 26.3312C44.4507 26.3312 44.9681 26.4347 45.3933 26.6417C45.8186 26.8487 46.1694 27.1413 46.4458 27.5195C47.0057 28.2832 47.2856 29.3323 47.2856 30.6669V34.9276C47.2856 36.1337 47.3033 36.8581 47.3388 37.1008C47.3742 37.3434 47.4203 37.5004 47.477 37.5718C47.5408 37.6432 47.5939 37.7074 47.6364 37.7645L47.6152 37.8073C47.0482 37.7573 46.6301 37.7324 46.3607 37.7324H45.5634C45.3012 37.7324 44.9787 37.7431 44.596 37.7645V31.9729C44.596 30.3029 44.3409 29.3109 43.8306 28.9969C43.6605 28.8969 43.4585 28.847 43.2247 28.847C42.9979 28.847 42.7959 28.8755 42.6187 28.9326C42.4415 28.9826 42.275 29.0682 42.1191 29.1895C41.8568 29.3822 41.5592 29.7605 41.2261 30.3243C41.2332 30.3814 41.2367 30.4385 41.2367 30.4956C41.2367 30.5527 41.2367 31.4948 41.2367 33.3218C41.2367 35.1488 41.2792 36.619 41.3643 37.7324C40.7619 37.7324 40.2481 37.7324 39.8228 37.7324C39.4047 37.7324 39.0043 37.7431 38.6215 37.7645V31.9622C38.6215 30.7989 38.5507 30.0424 38.4089 29.6927C38.2743 29.343 38.129 29.1146 37.9731 29.0076C37.8172 28.9005 37.6258 28.847 37.399 28.847C36.4635 28.847 35.6839 29.3002 35.0602 30.2065V34.6385Z" fill="#20206A"/>
<path d="M49.5606 32.1977C49.5606 31.4127 49.6917 30.6633 49.9539 29.9496C50.2232 29.2288 50.606 28.6008 51.1021 28.0655C52.1864 26.9093 53.5932 26.3312 55.3225 26.3312C57.0447 26.3312 58.4125 26.8772 59.4259 27.9691C60.3969 29.0111 60.8824 30.3636 60.8824 32.0264C60.8824 33.6893 60.3827 35.0668 59.3834 36.1587C58.3274 37.3149 56.9277 37.8929 55.1843 37.8929C53.3841 37.8929 51.9738 37.3256 50.9532 36.1908C50.0248 35.156 49.5606 33.8249 49.5606 32.1977ZM52.1439 32.1335C52.1439 32.5831 52.2183 33.0185 52.3671 33.4395C52.5159 33.8606 52.7286 34.221 53.005 34.5208C53.5932 35.1702 54.3657 35.495 55.3225 35.495C56.2084 35.495 56.9064 35.1774 57.4167 34.5422C57.9128 33.9284 58.1609 33.1291 58.1609 32.1442C58.1609 31.145 57.9057 30.3386 57.3955 29.7248C56.8498 29.0682 56.1021 28.7399 55.1524 28.7399C54.1885 28.7399 53.4337 29.0896 52.888 29.789C52.3919 30.4314 52.1439 31.2128 52.1439 32.1335Z" fill="#20206A"/>
<path d="M65.9001 36.3621C65.9001 36.9901 65.9284 37.4469 65.9851 37.7324H63.3168V26.5453H65.9001V27.4981C66.8356 26.7202 67.8349 26.3312 68.8979 26.3312C70.0602 26.3312 70.9887 26.7309 71.6832 27.5302C72.3777 28.3224 72.725 29.368 72.725 30.6669V34.9276C72.725 36.1337 72.7427 36.8581 72.7782 37.1008C72.8136 37.3434 72.8597 37.5004 72.9164 37.5718C72.9802 37.6432 73.0333 37.7074 73.0758 37.7645L73.0546 37.8073C72.4805 37.7573 72.0624 37.7324 71.8001 37.7324H71.056C70.8292 37.7324 70.5245 37.7431 70.1417 37.7645V31.9301C70.1417 29.839 69.511 28.7935 68.2495 28.7935C67.314 28.7935 66.5308 29.2788 65.9001 30.2494V36.3621Z" fill="#20206A"/>
<path d="M83.4621 37.1329C82.562 37.6396 81.6619 37.8929 80.7619 37.8929C79.8618 37.8929 79.0751 37.7502 78.4018 37.4647C77.7286 37.1793 77.1545 36.7867 76.6797 36.2872C75.7016 35.2594 75.2126 33.9249 75.2126 32.2834C75.2126 30.5848 75.7796 29.1717 76.9135 28.0441C78.0546 26.9022 79.5145 26.3312 81.2934 26.3312C81.8391 26.3312 82.3742 26.4026 82.8987 26.5453V21.7815H85.5032V33.2254C85.5032 34.1746 85.5457 34.7955 85.6308 35.0882C85.7229 35.3808 85.8221 35.5949 85.9284 35.7305C86.0418 35.8661 86.1836 35.9945 86.3537 36.1159L84.3551 37.8929C83.9865 37.6931 83.6889 37.4398 83.4621 37.1329ZM81.2615 35.4307C81.8568 35.4307 82.4025 35.3165 82.8987 35.0882V29.1574C82.4025 28.9505 81.8639 28.847 81.2828 28.847C80.7016 28.847 80.202 28.9255 79.7838 29.0825C79.3728 29.2395 79.0184 29.4572 78.7208 29.7355C78.0971 30.3207 77.7853 31.0808 77.7853 32.0157C77.7853 33.0363 78.0687 33.8499 78.6357 34.4565C79.2452 35.106 80.1205 35.4307 81.2615 35.4307Z" fill="#20206A"/>
<path d="M92.3175 37.8929C90.3189 37.8929 88.8129 37.5254 87.7994 36.7903C87.8136 36.5762 87.8349 36.3335 87.8632 36.0623L87.9589 35.2916C88.0156 34.7848 88.051 34.4708 88.0652 34.3495C88.0794 34.221 88.09 34.1532 88.0971 34.1461C88.1042 34.1318 88.1609 34.1889 88.2672 34.3174C88.3735 34.4387 88.5755 34.5886 88.8731 34.767C89.1708 34.9454 89.5145 35.1024 89.9043 35.238C90.7477 35.5306 91.6265 35.677 92.5408 35.677C93.7668 35.677 94.3799 35.2666 94.3799 34.4458C94.3799 34.1818 94.2629 33.9855 94.0291 33.8571C93.6109 33.6429 92.9943 33.4824 92.1793 33.3753C91.3714 33.2611 90.7087 33.097 90.1914 32.8829C89.674 32.6688 89.2523 32.4118 88.9263 32.1121C88.3239 31.5483 88.0227 30.8096 88.0227 29.8961C88.0227 28.7827 88.4479 27.9085 89.2984 27.2733C90.1417 26.6453 91.3076 26.3312 92.7959 26.3312C94.27 26.3312 95.528 26.7523 96.5698 27.5945C96.5202 27.78 96.467 27.9584 96.4103 28.1297C96.2473 28.6008 96.1269 28.9398 96.0489 29.1467L95.8044 29.7783C95.7902 29.8354 95.7796 29.864 95.7725 29.864C95.7583 29.864 95.7016 29.789 95.6024 29.6392C95.1559 29.1182 94.4614 28.7756 93.5188 28.6115C93.2282 28.5544 92.9305 28.5258 92.6258 28.5258C91.3359 28.5258 90.691 28.9183 90.691 29.7034C90.691 29.9746 90.8257 30.1816 91.095 30.3243C91.5982 30.5955 92.2856 30.7953 93.1573 30.9238C94.0361 31.0523 94.7023 31.2271 95.1559 31.4484C95.6095 31.6625 95.9745 31.923 96.2509 32.2298C96.7612 32.7865 97.0163 33.5252 97.0163 34.4458C97.0163 35.4521 96.6159 36.2693 95.815 36.8974C94.9787 37.5611 93.8129 37.8929 92.3175 37.8929Z" fill="#20206A"/>
<path d="M114.429 31.5768C114.089 31.5411 113.65 31.5233 113.111 31.5233H109.89V37.7324H106.977V23.4194C107.169 23.4337 107.388 23.4444 107.636 23.4515L108.423 23.4729C108.962 23.4872 109.522 23.4943 110.103 23.4943C111.846 23.4943 113.512 23.4658 115.099 23.4087C115.021 24.0367 114.982 24.8753 114.982 25.9244C114.982 26.0386 114.989 26.1243 115.004 26.1814L114.982 26.2135C114.607 26.1064 114.082 26.0529 113.409 26.0529H109.89V28.9969H112.994C113.774 28.9969 114.242 28.9754 114.398 28.9326L114.429 31.5768Z" fill="#20206A"/>
<path d="M116.768 32.1977C116.768 31.4127 116.899 30.6633 117.162 29.9496C117.431 29.2288 117.814 28.6008 118.31 28.0655C119.394 26.9093 120.801 26.3312 122.53 26.3312C124.252 26.3312 125.62 26.8772 126.634 27.9691C127.605 29.0111 128.09 30.3636 128.09 32.0264C128.09 33.6893 127.59 35.0668 126.591 36.1587C125.535 37.3149 124.135 37.8929 122.392 37.8929C120.592 37.8929 119.181 37.3256 118.161 36.1908C117.232 35.156 116.768 33.8249 116.768 32.1977ZM119.352 32.1335C119.352 32.5831 119.426 33.0185 119.575 33.4395C119.724 33.8606 119.936 34.221 120.213 34.5208C120.801 35.1702 121.573 35.495 122.53 35.495C123.416 35.495 124.114 35.1774 124.624 34.5422C125.12 33.9284 125.369 33.1291 125.369 32.1442C125.369 31.145 125.113 30.3386 124.603 29.7248C124.057 29.0682 123.31 28.7399 122.36 28.7399C121.396 28.7399 120.641 29.0896 120.096 29.789C119.6 30.4314 119.352 31.2128 119.352 32.1335Z" fill="#20206A"/>
<path d="M132.821 36.5334C132.821 37.1471 132.835 37.5468 132.863 37.7324H130.216V26.5453H132.821V27.3696C133.423 26.6774 134.054 26.3312 134.713 26.3312C135.379 26.3312 135.904 26.4133 136.286 26.5775L136.095 29.4572L136.052 29.4893C135.804 29.0468 135.291 28.8256 134.511 28.8256C134.213 28.8256 133.909 28.9291 133.597 29.136C133.292 29.3359 133.033 29.6035 132.821 29.9389V36.5334Z" fill="#20206A"/>
<path d="M137.052 32.2298C137.052 31.3948 137.193 30.6205 137.477 29.9068C137.76 29.1931 138.161 28.5686 138.678 28.0334C139.784 26.8986 141.23 26.3312 143.016 26.3312C144.525 26.3312 145.737 26.8344 146.651 27.8407C147.551 28.8113 148.001 30.0317 148.001 31.5019C148.001 32.0657 147.959 32.4511 147.874 32.6581C147.165 32.8579 145.723 32.9578 143.547 32.9578H139.805C139.989 33.7215 140.418 34.3174 141.091 34.7456C141.765 35.1667 142.64 35.3772 143.717 35.3772C144.844 35.3772 145.811 35.1738 146.619 34.767C146.832 34.6599 146.992 34.56 147.098 34.4673C147.084 34.767 147.066 35.0739 147.045 35.3879L146.928 37.0579C146.389 37.4291 145.517 37.686 144.313 37.8287C143.958 37.8715 143.618 37.8929 143.292 37.8929C141.492 37.8929 140.004 37.3648 138.827 36.3086C137.644 35.2452 137.052 33.8856 137.052 32.2298ZM145.174 30.881C144.883 29.3466 144.054 28.5793 142.686 28.5793C141.609 28.5793 140.79 29.0468 140.23 29.9817C140.06 30.2672 139.929 30.5812 139.837 30.9238C140.007 30.9309 140.216 30.9381 140.464 30.9452H141.251C141.513 30.9524 141.765 30.9559 142.006 30.9559H142.612C142.973 30.9559 143.327 30.9524 143.675 30.9452L144.546 30.9131C144.78 30.906 144.989 30.8953 145.174 30.881Z" fill="#20206A"/>
<path d="M148.714 26.5453H151.722L154.316 33.9106L156.825 26.5453H159.77L155.379 37.7324H153.189L148.714 26.5453Z" fill="#20206A"/>
<path d="M160.758 32.2298C160.758 31.3948 160.9 30.6205 161.184 29.9068C161.467 29.1931 161.867 28.5686 162.385 28.0334C163.49 26.8986 164.936 26.3312 166.722 26.3312C168.232 26.3312 169.444 26.8344 170.358 27.8407C171.258 28.8113 171.708 30.0317 171.708 31.5019C171.708 32.0657 171.665 32.4511 171.58 32.6581C170.872 32.8579 169.429 32.9578 167.254 32.9578H163.512C163.696 33.7215 164.125 34.3174 164.798 34.7456C165.471 35.1667 166.347 35.3772 167.424 35.3772C168.551 35.3772 169.518 35.1738 170.326 34.767C170.539 34.6599 170.698 34.56 170.804 34.4673C170.79 34.767 170.773 35.0739 170.751 35.3879L170.634 37.0579C170.096 37.4291 169.224 37.686 168.019 37.8287C167.665 37.8715 167.325 37.8929 166.999 37.8929C165.198 37.8929 163.71 37.3648 162.534 36.3086C161.35 35.2452 160.758 33.8856 160.758 32.2298ZM168.88 30.881C168.59 29.3466 167.76 28.5793 166.393 28.5793C165.315 28.5793 164.497 29.0468 163.937 29.9817C163.767 30.2672 163.636 30.5812 163.544 30.9238C163.714 30.9309 163.923 30.9381 164.171 30.9452H164.957C165.22 30.9524 165.471 30.9559 165.712 30.9559H166.318C166.68 30.9559 167.034 30.9524 167.381 30.9452L168.253 30.9131C168.487 30.906 168.696 30.8953 168.88 30.881Z" fill="#20206A"/>
<path d="M176.534 36.5334C176.534 37.1471 176.549 37.5468 176.577 37.7324H173.93V26.5453H176.534V27.3696C177.137 26.6774 177.768 26.3312 178.427 26.3312C179.093 26.3312 179.617 26.4133 180 26.5775L179.809 29.4572L179.766 29.4893C179.518 29.0468 179.004 28.8256 178.225 28.8256C177.927 28.8256 177.622 28.9291 177.31 29.136C177.006 29.3359 176.747 29.6035 176.534 29.9389V36.5334Z" fill="#20206A"/>
</svg>
