<svg xmlns="http://www.w3.org/2000/svg" width="18" height="16" viewBox="0 0 18 16">
  <g id="filter" transform="translate(-3.012 -3.766)">
    <path id="Контур_388" data-name="Контур 388" d="M81.563,81.84H70.839a2.213,2.213,0,0,0-4.194,0H64.971a.7.7,0,1,0,0,1.406h1.674a2.213,2.213,0,0,0,4.194,0H81.563a.7.7,0,1,0,0-1.406ZM68.742,83.346a.8.8,0,1,1,.8-.8A.8.8,0,0,1,68.742,83.346Z" transform="translate(-61.255 -76.568)" fill="#3b3f46"/>
    <path id="Контур_389" data-name="Контур 389" d="M81.563,210.373H79.889a2.213,2.213,0,0,0-4.194,0H64.971a.7.7,0,1,0,0,1.406H75.7a2.213,2.213,0,0,0,4.194,0h1.674a.7.7,0,1,0,0-1.406Zm-3.771,1.506a.8.8,0,1,1,.8-.8A.8.8,0,0,1,77.792,211.879Z" transform="translate(-61.255 -199.311)" fill="#3b3f46"/>
    <path id="Контур_390" data-name="Контур 390" d="M81.563,338.906H73.856a2.213,2.213,0,0,0-4.194,0H64.971a.7.7,0,1,0,0,1.406h4.691a2.213,2.213,0,0,0,4.194,0h7.707a.7.7,0,1,0,0-1.406Zm-9.8,1.506a.8.8,0,1,1,.8-.8A.8.8,0,0,1,71.759,340.413Z" transform="translate(-61.255 -322.053)" fill="#3b3f46"/>
  </g>
</svg>
